<?xml version="1.0" encoding="UTF-8" standalone="no"?>
<!-- Created with Inkscape (http://www.inkscape.org/) -->
<svg
   xmlns:dc="http://purl.org/dc/elements/1.1/"
   xmlns:cc="http://web.resource.org/cc/"
   xmlns:rdf="http://www.w3.org/1999/02/22-rdf-syntax-ns#"
   xmlns:svg="http://www.w3.org/2000/svg"
   xmlns="http://www.w3.org/2000/svg"
   xmlns:sodipodi="http://sodipodi.sourceforge.net/DTD/sodipodi-0.dtd"
   xmlns:inkscape="http://www.inkscape.org/namespaces/inkscape"
   width="730.98285"
   height="575.15369"
   id="svg3339"
   sodipodi:version="0.32"
   inkscape:version="0.44"
   version="1.0"
   sodipodi:docbase="C:\Documents and Settings\Joan Borràs Comes\Escritorio\Mapes comarcals d'Espanya"
   sodipodi:docname="Mapa comarcal del País Basc.svg">
  <defs
     id="defs1369"><clipPath
   id="SVG_CP_1">
  <path
     d="M 0,0 L 0,413.263 L 777.7417,413.263 L 777.7417,0 L 0,0 z "
     id="path605" />
</clipPath>





</defs>
  <sodipodi:namedview
     id="base"
     pagecolor="#ffffff"
     bordercolor="#666666"
     borderopacity="1.0"
     inkscape:pageopacity="0.0"
     inkscape:pageshadow="2"
     inkscape:zoom="0.89019685"
     inkscape:cx="365.49142"
     inkscape:cy="287.57684"
     inkscape:document-units="px"
     inkscape:current-layer="layer1"
     inkscape:window-width="1024"
     inkscape:window-height="710"
     inkscape:window-x="-4"
     inkscape:window-y="-4" />
  <metadata
     id="metadata1372">
    <rdf:RDF>
      <cc:Work
         rdf:about="">
        <dc:format>image/svg+xml</dc:format>
        <dc:type
           rdf:resource="http://purl.org/dc/dcmitype/StillImage" />
      </cc:Work>
    </rdf:RDF>
  </metadata>
  <g
     inkscape:label="Capa 1"
     inkscape:groupmode="layer"
     id="layer1"
     transform="translate(199.7771,-444.7853)">
    <g
       style="opacity:1;fill:#e6e6e6;stroke:#4d4d4d;stroke-width:0.25;stroke-opacity:1"
       id="g4260"
       transform="translate(-204.1909,442.7153)">
      <path
         style="font-size:12px;opacity:1;fill:#aac771;fill-opacity:1;stroke:#4d4d4d;stroke-width:0.25;stroke-linecap:square;stroke-miterlimit:4.13333321;stroke-dasharray:none;stroke-opacity:1"
         d="M 103.53125,93.71875 L 94.0625,96.90625 L 91.6875,100.625 L 89,102 L 87.46875,100.96875 L 85.78125,101.46875 L 81.375,104.1875 L 76.65625,104.03125 L 75.28125,102.65625 L 75.96875,100.625 L 75.125,98.28125 L 67.6875,100.125 L 66.84375,101.3125 L 63.46875,102.84375 L 59.90625,97.59375 L 59.21875,99.28125 L 57.375,100.46875 L 55.6875,101.65625 L 57.03125,108.40625 L 56.6875,110.78125 L 49.25,114 L 45.1875,112.65625 L 41.3125,114.84375 L 39.28125,115 L 38.09375,116.6875 L 37.09375,118.40625 L 35.71875,124.8125 L 32.6875,128.71875 L 29.65625,126 L 26.78125,126.34375 L 27.9375,127.875 L 24.75,131.25 L 22.875,131.90625 L 20,130.75 L 16.78125,134.78125 L 13.75,133.09375 L 12.40625,133.9375 L 17.125,141.71875 L 19.5,148.65625 L 19.15625,153.5625 L 18.65625,155.25 L 17.96875,155.25 L 18.5,170.125 L 20.1875,176.21875 L 21.03125,176.21875 L 21.53125,178.75 L 22.875,180.4375 L 24.75,191.09375 L 27.78125,190.59375 L 29.125,188.90625 L 36.5625,187.5625 L 43.5,182.65625 L 43.84375,181.28125 L 48.40625,180.96875 L 52.125,179.59375 L 55.6875,172.65625 L 57.03125,172.34375 L 59.0625,173.34375 L 64.65625,171.15625 L 64.8125,170.3125 L 69.03125,169.625 L 70.5625,167.09375 L 72.59375,165.90625 L 73.9375,164.03125 L 82.0625,159.8125 L 81.71875,157.4375 L 85.9375,157.625 L 88.15625,156.4375 L 90.6875,156.9375 L 91.875,155.09375 L 98.28125,162.34375 L 99.96875,166.0625 L 100.8125,166.0625 L 101.34375,167.59375 L 102.1875,167.59375 L 104.03125,169.78125 L 103.6875,170.96875 L 106.21875,168.09375 L 107.9375,169.125 L 108.4375,168.78125 L 109.09375,166.75 L 110.46875,165.90625 L 111.65625,168.625 L 114,170.625 L 118.5625,171.65625 L 119.40625,171.65625 L 122.125,168.28125 L 126.53125,166.40625 L 128.875,167.25 L 130.90625,166.75 L 134.625,168.9375 L 136.84375,172.15625 L 137.5,175.875 L 138.6875,175.03125 L 140.03125,177.75 L 141.0625,178.75 L 144.09375,179.09375 L 147.5,184.34375 L 149.6875,186.03125 L 150.6875,185.84375 L 156.96875,181.46875 L 159.15625,181.625 L 161.6875,183.5 L 164.5625,184.34375 L 168.125,179.09375 L 184,176.0625 L 183.65625,171.65625 L 187.375,164.375 L 186.375,158.8125 L 187.90625,157.78125 L 186.375,154.75 L 188.21875,152.875 L 183.34375,151.6875 L 178.75,149 L 181.46875,145.09375 L 184,145.09375 L 187.5625,149.15625 L 187.0625,150.84375 L 188.90625,151.375 L 190.09375,154.40625 L 192.28125,156.4375 L 202.09375,154.25 L 202.59375,153.5625 L 202.4375,153.40625 L 200.25,152.375 L 197.6875,149.15625 L 193.3125,148.15625 L 191.9375,145.9375 L 192.28125,144.4375 L 190.59375,142.0625 L 187.90625,140.53125 L 189.9375,136.65625 L 189.75,135.625 L 188.21875,135.625 L 187.90625,135.3125 L 187.5625,134.96875 L 186.71875,133.59375 L 182.8125,128.71875 L 181.96875,125.3125 L 182.3125,124.125 L 175.21875,117.875 L 169.28125,112.96875 L 164.40625,108.40625 L 159.5,106.375 L 157.125,104.53125 L 152.5625,103.1875 L 149.84375,104.53125 L 149.1875,104.03125 L 148.5,103.34375 L 141.5625,101.15625 L 139.1875,99.46875 L 137.34375,99.78125 L 133.4375,95.40625 L 133.4375,95.21875 L 133.4375,95.0625 L 131.09375,98.09375 L 121.625,98.9375 L 120.09375,99.78125 L 116.53125,99.625 L 114.1875,102.65625 L 111.65625,103.84375 L 109.78125,107.90625 L 108.09375,107.0625 L 106.21875,106.0625 L 106.40625,103.34375 L 103.53125,99.96875 L 103.53125,93.71875 z M 86.4375,117.03125 L 93.5625,121.09375 L 92.71875,128.03125 L 90.34375,132.09375 L 85.59375,135.3125 L 85.09375,137.84375 L 86.625,141.71875 L 84.59375,144.59375 L 87.125,150.84375 L 85.28125,153.21875 L 79.53125,154.25 L 79,155.59375 L 76.46875,152.375 L 73.78125,150.53125 L 75.125,148.3125 L 75.96875,143.75 L 74.4375,142.40625 L 74.28125,137.65625 L 75.96875,131.40625 L 74.4375,130.0625 L 73.09375,127 L 70.71875,125 L 71.75,122.96875 L 71.0625,121.59375 L 77.65625,119.90625 L 81.375,119.90625 L 84.75,117.375 L 86.4375,117.03125 z "
         transform="translate(4.4138,2.07)"
         id="path14776"
         sodipodi:nodetypes="ccccccccccccccccccccccccccccccccccccccccccccccccccccccccccccccccccccccccccccccccccccccccccccccccccccccccccccccccccccccccccccccccccccccccccccccccccccccccccccccccccccccccccccccccccccccccccccccccccc" />
      <path
         style="font-size:12px;opacity:1;fill:#89b330;fill-opacity:1;stroke:#4d4d4d;stroke-width:0.22734713;stroke-linecap:square;stroke-miterlimit:4.00952387;stroke-dasharray:none;stroke-opacity:1"
         d="M 183.84375 145.34375 L 181.46875 145.625 L 178.8125 149.3125 L 183.3125 151.9375 L 188.3125 153.28125 L 186.21875 155.125 L 187.78125 158.03125 L 186.46875 159.09375 L 187.53125 164.625 L 183.84375 172 L 184.09375 176.25 L 168.25 179.40625 L 164.5625 184.6875 L 161.65625 183.875 L 159.28125 182.03125 L 156.90625 181.78125 L 153.75 183.875 L 150.84375 186 L 149.78125 186.25 L 147.6875 184.6875 L 144.25 179.40625 L 141.09375 178.875 L 140.03125 178.09375 L 138.71875 175.1875 L 138.1875 175.71875 L 137.65625 176.25 L 134.75 176.5 L 129.21875 180.1875 L 127.09375 184.15625 L 129.46875 186.25 L 121.03125 198.65625 L 121.5625 201.3125 L 126.03125 205 L 128.9375 205.28125 L 133.15625 208.15625 L 134.75 205.78125 L 137.375 204.46875 L 140.5625 211.875 L 135 218.1875 L 133.4375 222.15625 L 130.53125 224.8125 L 135 227.6875 L 137.65625 227.6875 L 137.90625 228.5 L 137.65625 232.96875 L 136.59375 236.15625 L 137.375 238.78125 L 135.8125 238.53125 L 136.0625 244.84375 L 135 246.4375 L 137.125 249.34375 L 136.59375 250.65625 L 132.625 250.9375 L 125.78125 249.59375 L 125.25 251.71875 L 122.59375 253.5625 L 126.03125 257.25 L 136.0625 262 L 142.125 261.5 L 144.25 261.5 L 145.84375 262.53125 L 151.625 262.8125 L 158.75 264.90625 L 158.25 260.6875 L 168.25 253.03125 L 169.59375 245.90625 L 174.875 239.5625 L 175.65625 241.15625 L 176.96875 240.375 L 177.5 241.4375 L 183.3125 240.09375 L 183.03125 245.375 L 187.53125 245.125 L 186.46875 248.03125 L 181.46875 253.03125 L 181.71875 254.625 L 183.03125 255.6875 L 187 255.6875 L 192.03125 258.59375 L 196.25 258.0625 L 200.71875 259.09375 L 201.25 261.5 L 198.34375 265.71875 L 200.71875 270.1875 L 206.78125 267.5625 L 208.65625 265.96875 L 208.65625 265.1875 L 213.125 266.5 L 218.65625 263.34375 L 218.9375 261.21875 L 222.375 257.78125 L 224.75 256.71875 L 226.0625 257.25 L 228.96875 256.71875 L 229.75 254.34375 L 229.5 251.1875 L 230.28125 250.40625 L 230.03125 248.28125 L 228.96875 248.03125 L 236.875 245.90625 L 241.375 240.625 L 239.78125 240.375 L 238.1875 240.09375 L 232.90625 235.34375 L 228.15625 232.4375 L 223.40625 225.3125 L 218.40625 223.46875 L 218.9375 222.15625 L 211.03125 214.25 L 208.375 213.4375 L 206 212.90625 L 204.9375 210.8125 L 209.15625 207.90625 L 212.34375 201.84375 L 212.875 201.84375 L 216.03125 196.5625 L 218.40625 194.4375 L 218.9375 192.34375 L 221.03125 190.21875 L 219.71875 188.90625 L 220.53125 186.78125 L 220 185.21875 L 219.71875 184.9375 L 219.46875 184.6875 L 215.5 178.625 L 213.65625 177.28125 L 216.8125 170.96875 L 210.75 168.0625 L 206 162.5 L 203.09375 153.8125 L 202.84375 153.8125 L 202.5625 153.8125 L 202.03125 154.59375 L 192.28125 156.71875 L 190.15625 154.84375 L 188.84375 151.6875 L 187 151.15625 L 187.53125 149.3125 L 183.84375 145.34375 z M 212.0625 269.125 L 204.15625 272.3125 L 196.78125 272.3125 L 194.65625 271.78125 L 193.59375 272.84375 L 193.34375 275.46875 L 191.21875 276 L 182.25 274.9375 L 180.9375 275.46875 L 179.875 275.75 L 179.09375 278.125 L 176.71875 280.75 L 178.5625 282.875 L 179.625 282.875 L 184.875 287.09375 L 186.75 287.625 L 186.21875 289.46875 L 187 290.78125 L 190.15625 292.375 L 196.5 292.09375 L 198.875 295.53125 L 201.25 296.84375 L 202.5625 300.03125 L 204.15625 301.0625 L 205.21875 300.28125 L 206.78125 295.28125 L 206 293.6875 L 207.3125 288.40625 L 207.59375 283.65625 L 210.75 283.65625 L 211.53125 282.0625 L 210.75 279.96875 L 211.8125 276 L 213.40625 274.15625 L 213.40625 269.65625 L 212.0625 269.125 z "
         transform="translate(4.4138,2.07)"
         id="path2543" />
      <path
         d="M 361.91166,173.77194 L 360.95168,174.97202 L 361.43167,176.1721 L 359.51171,179.29232 L 355.43181,182.89256 L 353.99184,186.49281 L 353.75184,189.85304 L 354.71182,192.01319 L 353.51185,193.21327 L 356.15179,195.85345 L 356.15179,197.53357 L 355.43181,198.73365 L 356.63178,200.8938 L 360.47169,203.29396 L 359.27172,204.97408 L 354.71182,206.17416 L 353.75184,206.89421 L 348.71196,207.37424 L 342.23211,209.29438 L 341.99212,208.33431 L 343.67208,204.73406 L 345.11204,203.774 L 344.39206,203.29396 L 345.11204,202.09388 L 346.55201,201.13382 L 347.51199,193.93332 L 345.59203,189.13299 L 345.35204,186.25279 L 343.67208,184.33266 L 343.19209,181.9325 L 343.91207,180.01236 L 343.19209,177.85222 L 346.31202,174.25197 L 348.47197,173.05189 L 353.03186,172.33184 L 352.79187,171.61179 L 353.51185,170.89174 L 362.87163,172.33184 L 361.91166,173.77194"
         transform="matrix(1.09964,0,0,1.09964,-130.0239,126.8378)"
         style="font-size:12px;opacity:1;fill:gray;fill-opacity:1;stroke:#4d4d4d;stroke-width:0.22734713;stroke-linecap:square;stroke-miterlimit:4;stroke-dasharray:none;stroke-opacity:1"
         clip-path="url(#SVG_CP_1)"
         id="path2591" />
      <path
         d="M 584.14653,204.25403 L 584.62652,205.93415 L 583.66654,210.73447 L 577.18669,217.69495 L 571.90681,221.53522 L 570.94684,223.69537 L 571.66682,230.65584 L 569.74686,232.57598 L 567.10693,235.69619 L 565.66696,235.93621 L 563.02702,233.05601 L 557.02716,229.69578 L 556.54717,230.89586 L 555.1072,230.17581 L 552.94725,230.17581 L 553.66723,233.05601 L 557.26715,236.89627 L 557.98714,240.49652 L 555.3472,240.49652 L 550.7873,238.8164 L 549.58733,239.29644 L 548.86735,241.21657 L 546.94739,243.37672 L 544.78744,243.61673 L 543.34747,245.05683 L 539.26757,246.49693 L 538.54758,245.77688 L 533.26771,238.8164 L 535.66765,235.21616 L 533.98769,226.33555 L 539.98755,226.09553 L 548.14736,221.05518 L 548.38736,219.61508 L 551.74728,214.33472 L 555.82719,213.61467 L 560.38708,210.97449 L 559.6671,209.05436 L 557.26715,206.89421 L 556.30717,204.97408 L 560.38708,203.29396 L 566.62694,204.25403 L 571.42683,207.37424 L 572.86679,205.69413 L 575.50673,204.49405 L 583.42655,202.3339 L 584.14653,204.25403"
         transform="matrix(1.09964,0,0,1.09964,-130.0239,126.8378)"
         style="font-size:12px;opacity:1;fill:gray;fill-opacity:1;stroke:#4d4d4d;stroke-width:0.22734713;stroke-linecap:square;stroke-miterlimit:4;stroke-dasharray:none;stroke-opacity:1"
         clip-path="url(#SVG_CP_1)"
         id="path2627" />
      <path
         style="font-size:12px;opacity:1;fill:#d0f549;fill-opacity:1;stroke:#4d4d4d;stroke-width:0.22734713;stroke-linecap:square;stroke-miterlimit:4;stroke-dasharray:none;stroke-opacity:1"
         d="M 266.1875 463.125 L 263 464.71875 L 258 465.5 L 252.71875 466.5625 L 253.25 466.8125 L 259.3125 471.5625 L 259.3125 475 L 257.1875 478.4375 L 258.78125 480.03125 L 259.84375 483.1875 L 263 482.9375 L 268.8125 480.03125 L 269.0625 482.9375 L 267.21875 487.15625 L 269.34375 488.1875 L 269.0625 492.4375 L 268.03125 494 L 260.375 498.21875 L 261.6875 504.03125 L 265.375 508.25 L 266.96875 513 L 268.8125 513 L 269.875 511.4375 L 270.65625 505.875 L 271.71875 504.84375 L 275.6875 507.71875 L 277 506.6875 L 277.78125 502.46875 L 281.46875 500.09375 L 285.1875 499.28125 L 286.21875 497.96875 L 285.6875 496.375 L 288.59375 490.0625 L 287.8125 483.96875 L 290.96875 476.84375 L 287.03125 473.9375 L 285.6875 471.5625 L 281.21875 468.65625 L 279.09375 470 L 275.40625 470.53125 L 275.6875 466.28125 L 274.34375 465.5 L 270.65625 466.03125 L 266.1875 463.125 z M 393.375 477.90625 L 391.78125 478.4375 L 389.9375 478.96875 L 381.75 481.0625 L 380.1875 482.125 L 378.34375 482.9375 L 366.71875 487.9375 L 360.125 487.9375 L 353 485.5625 L 348.5 485.03125 L 346.40625 485.5625 L 341.125 489.53125 L 331.625 492.15625 L 325.5625 490.3125 L 326.09375 490.84375 L 323.71875 497.1875 L 323.4375 510.09375 L 321.59375 519.625 L 318.6875 528.0625 L 316.0625 534.125 L 320.53125 533.0625 L 324.21875 532 L 325.8125 530.15625 L 328.1875 529.125 L 327.65625 537.8125 L 328.1875 538.34375 L 331.34375 537.8125 L 332.40625 537.8125 L 336.125 541 L 337.15625 545.75 L 339 551.28125 L 339.8125 552.59375 L 341.125 552.59375 L 343.25 551.8125 L 346.65625 548.65625 L 347.71875 545.75 L 355.125 545.46875 L 355.90625 543.90625 L 357.21875 541.25 L 362.5 547.84375 L 361.96875 548.90625 L 360.125 549.6875 L 359.0625 551.8125 L 358.53125 554.71875 L 359.0625 556.8125 L 360.65625 558.15625 L 362.25 558.65625 L 364.625 557.625 L 362.75 554.1875 L 363.03125 552.875 L 368.3125 552.59375 L 369.875 548.125 L 372.78125 546.53125 L 377 551.28125 L 380.4375 551.8125 L 385.1875 552.34375 L 388.375 552.0625 L 388.375 551.28125 L 384.9375 548.65625 L 384.9375 546.28125 L 392.3125 538.625 L 394.6875 532.8125 L 396.28125 531.75 L 397.34375 532.53125 L 398.125 535.4375 L 396.28125 540.1875 L 393.125 543.375 L 392.59375 545.46875 L 393.375 547.59375 L 394.4375 548.65625 L 410 550.21875 L 411.84375 547.0625 L 421.34375 544.6875 L 425.84375 548.65625 L 432.96875 548.65625 L 431.90625 543.09375 L 431.65625 537.5625 L 432.4375 536.25 L 437.71875 533.875 L 444.5625 533.34375 L 444.3125 529.90625 L 442.1875 526.46875 L 441.9375 523.84375 L 440.875 521.46875 L 441.15625 520.125 L 441.40625 518.8125 L 443 516.71875 L 445.375 515.375 L 445.09375 509.0625 L 444.0625 506.9375 L 441.9375 494.8125 L 441.15625 493.21875 L 442.46875 487.6875 L 441.40625 488.46875 L 436.125 487.15625 L 433.5 483.1875 L 432.4375 483.1875 L 431.90625 483.71875 L 430.84375 484.78125 L 430.84375 487.15625 L 429 488.71875 L 427.6875 491.625 L 427.40625 492.4375 L 423.1875 501.40625 L 419.5 505.625 L 416.59375 499.03125 L 415.53125 494.28125 L 411.3125 493.21875 L 406.84375 493.46875 L 404.71875 494.28125 L 404.46875 494.8125 L 403.9375 495.59375 L 402.34375 486.875 L 400.25 481.0625 L 399.96875 478.4375 L 399.4375 478.1875 L 399.1875 478.1875 L 398.65625 478.1875 L 393.375 477.90625 z "
         transform="translate(4.4138,2.07)"
         id="path2691" />
      <path
         d="M 435.10997,305.54099 L 435.58996,306.02102 L 436.78993,305.30097 L 441.82981,305.54099 L 440.62984,306.02102 L 440.14985,309.14123 L 437.74991,314.4216 L 431.03006,313.70155 L 430.79007,312.02143 L 427.91013,311.78142 L 426.23017,309.86128 L 427.19015,308.42118 L 424.55021,308.42118 L 425.99018,304.58092 L 431.27006,306.98109 L 431.99004,304.82094 L 434.62998,305.06095 L 435.10997,305.54099"
         transform="matrix(1.09964,0,0,1.09964,-130.0239,126.8378)"
         style="font-size:12px;opacity:1;fill:gray;fill-opacity:1;stroke:#4d4d4d;stroke-width:0.22734713;stroke-linecap:square;stroke-miterlimit:4;stroke-dasharray:none;stroke-opacity:1"
         clip-path="url(#SVG_CP_1)"
         id="path2739" />
      <path
         style="font-size:12px;opacity:1;fill:#afe340;fill-opacity:1;stroke:#4d4d4d;stroke-width:0.25;stroke-linecap:square;stroke-miterlimit:4;stroke-dasharray:none;stroke-opacity:1"
         d="M 687.28125,39.625 L 681.875,44.5 L 677.6875,45.03125 L 674.4375,47.40625 L 673.90625,46.3125 L 672.09375,46.5 L 667.375,48.84375 L 665.21875,51.5625 L 663.59375,50.46875 L 663.40625,49.375 L 661.96875,51.75 L 660.15625,51.5625 L 659.0625,52.46875 L 658.34375,54.8125 L 657.09375,53.375 L 654.53125,55.90625 L 660.6875,69.46875 L 663.78125,77.0625 L 662.6875,79.78125 L 663.9375,80.125 L 670.65625,87 L 678.59375,90.625 L 680.96875,93.53125 L 684.5625,95.6875 L 687.65625,96.59375 L 690.375,98.9375 L 691.28125,100.9375 L 695.25,99.6875 L 698.875,101.125 L 700.125,100.21875 L 700.125,99.125 L 702.65625,98.59375 L 703.03125,99.3125 L 704.65625,97.3125 L 707.375,96.0625 L 708.625,96.59375 L 708.625,95.875 L 710.0625,95.875 L 713.15625,96.59375 L 713.6875,95.875 L 713.34375,95.34375 L 711.34375,88.09375 L 709.34375,87 L 710.25,85.75 L 708.625,84.125 L 710.0625,82.125 L 710.25,76.53125 L 708.8125,75.625 L 704.65625,75.4375 L 703.75,74.15625 L 703.21875,70.1875 L 701.40625,68.75 L 699.03125,68.5625 L 695.4375,69.46875 L 693.625,68.75 L 693.0625,66.5625 L 689.46875,65.5 L 688.1875,63.6875 L 684.40625,66.375 L 686.1875,64.9375 L 688.1875,63.6875 L 691.625,59.5 L 688.375,57.71875 L 686.9375,55.71875 L 686.1875,53.1875 L 686.75,51 L 686.03125,53.1875 L 684.5625,51.375 L 684.21875,48.3125 L 687.09375,44.5 L 687.84375,44.875 L 687.65625,43.78125 L 688.5625,42.34375 L 687.84375,42.34375 L 688.375,41.0625 L 687.28125,40.875 L 687.28125,39.625 z "
         transform="translate(4.4138,2.07)"
         id="path12292" />
      <path
         d="M 441.34982,297.86046 L 450.22962,296.66038 L 458.14944,293.30015 L 459.8294,303.62085 L 463.66931,310.58133 L 462.94933,315.38166 L 463.9093,316.82176 L 465.58927,316.10171 L 463.18932,324.98232 L 461.26937,325.94239 L 460.30939,329.54264 L 456.70947,331.46277 L 453.58954,330.5027 L 452.38957,333.14288 L 435.10997,333.86293 L 429.11011,336.2631 L 418.55035,337.46318 L 416.63039,334.58298 L 416.15041,328.82259 L 412.79048,327.38249 L 418.79034,324.02226 L 418.31036,322.58216 L 417.83037,307.70114 L 423.83023,306.26104 L 432.47003,298.82053 L 441.34982,297.86046"
         transform="matrix(0.753708,0,0,0.753707,246.1784,27.57568)"
         style="font-size:12px;opacity:1;fill:gray;fill-opacity:1;stroke:#4d4d4d;stroke-width:0.33169366;stroke-linecap:square;stroke-miterlimit:4;stroke-dasharray:none;stroke-opacity:1"
         clip-path="url(#SVG_CP_1)"
         id="path12652" />
      <path
         d="M 284.87343,333.86293 L 289.19333,335.78306 L 290.3933,335.54305 L 294.9532,340.58339 L 296.39317,344.90369 L 301.19306,350.18405 L 304.55298,357.14453 L 315.83272,364.34503 L 322.79256,364.10501 L 328.31243,366.50517 L 329.03241,367.70526 L 331.67235,367.70526 L 339.83216,361.46483 L 341.03214,359.30468 L 340.07216,356.42448 L 343.43208,354.74437 L 349.91193,356.6645 L 357.59176,355.46442 L 365.27158,352.58422 L 366.47155,353.7843 L 366.23156,357.14453 L 363.35162,359.5447 L 363.59162,363.38496 L 360.95168,366.26516 L 354.71182,367.22522 L 353.51185,369.86541 L 352.79187,371.06549 L 351.59189,374.90575 L 351.83189,393.86705 L 350.63192,394.5871 L 345.83203,392.90699 L 344.63205,394.10707 L 341.99212,392.18694 L 332.39234,389.78677 L 323.51254,389.54676 L 321.59259,386.66656 L 322.55256,385.22646 L 318.95265,379.9461 L 316.31271,372.02555 L 314.87274,370.82547 L 312.2328,372.02555 L 309.83286,371.54552 L 308.63288,369.62539 L 305.03297,368.18529 L 296.15317,364.34503 L 289.67332,359.78471 L 288.95334,356.42448 L 287.51337,354.26433 L 287.99336,353.06425 L 287.03338,348.98397 L 282.95348,344.66367 L 283.19347,341.78348 L 279.35356,339.14329 L 280.79353,331.9428 L 284.87343,333.86293"
         transform="matrix(0.753708,0,0,0.753707,246.1784,27.57568)"
         style="font-size:12px;opacity:1;fill:gray;fill-opacity:1;stroke:#4d4d4d;stroke-width:0.33169366;stroke-linecap:square;stroke-miterlimit:4;stroke-dasharray:none;stroke-opacity:1"
         clip-path="url(#SVG_CP_1)"
         id="path12752" />
      <path
         style="font-size:12px;opacity:1;fill:#9ecf51;fill-opacity:1;stroke:#4d4d4d;stroke-width:0.25;stroke-linecap:square;stroke-miterlimit:4.00004864;stroke-dasharray:none;stroke-opacity:1"
         d="M 394.15625,55.15625 L 392.46875,55.3125 L 389.59375,56.5 L 384.875,56 L 384.1875,55.3125 L 380.28125,57.6875 L 377.75,56.6875 L 372.84375,60.90625 L 364.90625,59.21875 L 364.90625,62.59375 L 362.375,64.46875 L 361.1875,64.46875 L 360,64.46875 L 359.5,66.3125 L 357.125,66.3125 L 358.3125,68.1875 L 362.03125,72.21875 L 365.59375,73.40625 L 371.6875,77.3125 L 371.15625,81.875 L 371.6875,82.375 L 374.375,82.375 L 369.96875,93.875 L 365.9375,95.71875 L 361.375,95.21875 L 359.34375,95.90625 L 358.8125,96.75 L 359.65625,101.46875 L 356.78125,106.375 L 347.5,109.4375 L 346.15625,112.3125 L 346.65625,119.75 L 349.1875,121.09375 L 350.375,124.46875 L 350.53125,129.875 L 347.3125,132.25 L 348,133.4375 L 352.90625,135.625 L 353.40625,136.65625 L 352.75,139.1875 L 356.96875,137.34375 L 361.1875,139.1875 L 366.78125,144.4375 L 372,140.875 L 376.40625,136.65625 L 379.625,137.34375 L 382.15625,136.8125 L 384.1875,137.34375 L 385.375,139.03125 L 388.75,140.21875 L 390.09375,143.59375 L 394.84375,146.28125 L 395.1875,145.625 L 396.875,147.125 L 398.90625,147.3125 L 399.40625,142.5625 L 400.9375,139.53125 L 402.625,140.71875 L 405.3125,140.375 L 409.375,141.71875 L 413.4375,140.71875 L 414.78125,139.1875 L 420.875,133.28125 L 421.71875,130.90625 L 422.90625,130.21875 L 424.25,129.375 L 423.25,125 L 429.84375,119.40625 L 431.53125,115.84375 L 430.15625,112.65625 L 429.3125,114.65625 L 427.3125,115.34375 L 426.4375,114.84375 L 425.4375,113.15625 L 426.96875,112.46875 L 427.96875,112.96875 L 428.65625,111.625 L 426.96875,108.0625 L 422.71875,104.6875 L 423.90625,98.28125 L 425.9375,96.75 L 427.3125,93.1875 L 430.6875,91 L 432.53125,86.9375 L 433.5625,86.25 L 431.34375,85.40625 L 431.34375,84.25 L 430.5,85.9375 L 429.65625,84.5625 L 430,83.40625 L 431.03125,83.5625 L 430,84.25 L 432.03125,83.90625 L 430.15625,81.875 L 425.59375,79.5 L 424.4375,79.34375 L 423.25,79 L 422.21875,80.1875 L 416.125,77.3125 L 414.625,78.5 L 413.78125,76.78125 L 412.75,76.625 L 409.53125,69.53125 L 408.1875,69.6875 L 407,66.8125 L 405.5,67.15625 L 403.125,62.75 L 401.4375,62.4375 L 399.75,62.25 L 399.21875,62.59375 L 398.71875,62.9375 L 398.71875,63.03125 L 398.375,63.28125 L 397.53125,62.9375 L 397.875,62.09375 L 397.1875,62.59375 L 398.5625,60.71875 L 396.875,60.5625 L 394.15625,55.15625 z "
         transform="translate(4.4138,2.07)"
         id="path14564"
         sodipodi:nodetypes="ccccccccccccccccccccccccccccccccccccccccccccccccccccccccccccccccccccccccccccccccccccccccccccccccccccccccccccccccccccccc" />
      <path
         style="font-size:12px;opacity:1;fill:#bdfa39;fill-opacity:1;stroke:#4d4d4d;stroke-width:0.25;stroke-linecap:square;stroke-miterlimit:4.01904774;stroke-dasharray:none;stroke-opacity:1"
         d="M 212.5625 147.46875 L 211.90625 150.1875 L 202.4375 153.40625 L 202.59375 153.5625 L 203.125 153.5625 L 205.96875 162.1875 L 210.71875 167.75 L 216.8125 170.8125 L 213.75 176.90625 L 215.625 178.40625 L 219.5 184.5 L 220.03125 185 L 220.53125 186.375 L 219.84375 188.5625 L 221.1875 190.09375 L 219 191.9375 L 218.3125 194.15625 L 215.96875 196.34375 L 212.90625 201.75 L 212.25 201.75 L 209.375 207.84375 L 204.96875 210.53125 L 206.15625 212.75 L 211.0625 214.09375 L 219.15625 221.875 L 218.5 223.21875 L 223.5625 225.09375 L 228.125 232.1875 L 233.21875 235.0625 L 238.28125 239.96875 L 239.8125 240.3125 L 240.65625 238.625 L 242.5 237.78125 L 250.625 236.90625 L 257.03125 240.96875 L 261.59375 242.5 L 267.6875 246.21875 L 280.875 246.5625 L 284.4375 246.71875 L 286.96875 248.40625 L 287.3125 249.59375 L 289 250.78125 L 293.90625 249.9375 L 296.59375 250.96875 L 297.4375 250.4375 L 298.8125 247.0625 L 301.15625 246.71875 L 303.1875 249.4375 L 303.71875 251.625 L 305.40625 252.3125 L 311.3125 248.59375 L 314.1875 248.9375 L 315.875 248.25 L 316.5625 250.09375 L 318.0625 250.625 L 320.78125 253.5 L 322.46875 252.46875 L 322.8125 253.5 L 327.03125 250.96875 L 328.21875 251.125 L 331.09375 248.09375 L 335.15625 250.96875 L 336.6875 248.75 L 336.5 250.4375 L 340.71875 253.65625 L 344.625 254.5 L 345.8125 249.59375 L 344.4375 246.71875 L 344.625 240.625 L 343.09375 239.78125 L 338.53125 233.1875 L 336.84375 232.34375 L 335 229.65625 L 333.28125 229.15625 L 332.78125 228.125 L 332.4375 227.125 L 329.5625 222.375 L 329.75 215.28125 L 327.875 210.375 L 325.84375 208.6875 L 324.15625 203.9375 L 325.6875 199.5625 L 325.34375 196.84375 L 324.34375 194.8125 L 319.9375 191.4375 L 320.09375 183.15625 L 319.4375 180.78125 L 318.75 178.59375 L 312.65625 171.5 L 308.625 169.625 L 302.34375 164.03125 L 301.6875 162.875 L 301 163.03125 L 298.46875 160.84375 L 295.4375 162.53125 L 292.03125 160.5 L 286.96875 161.5 L 286.625 160.3125 L 286.125 161.34375 L 282.5625 160.84375 L 282.0625 161.6875 L 279.1875 160.3125 L 276.3125 158.8125 L 268.875 166.75 L 268.03125 168.9375 L 263.3125 168.28125 L 260.59375 169.46875 L 259.40625 171.8125 L 252.65625 168.28125 L 255.1875 163.875 L 254.34375 161.5 L 251.8125 160.5 L 249.9375 162.875 L 248.40625 163.03125 L 246.5625 161.15625 L 244.53125 159.46875 L 244.6875 160.84375 L 243.34375 161.34375 L 239.625 158.96875 L 237.78125 159.65625 L 235.90625 159.3125 L 237.9375 161.34375 L 237.09375 164.03125 L 236.25 163.875 L 235.75 162.53125 L 233.03125 162 L 229.3125 159.46875 L 227.625 160.65625 L 226.09375 161.84375 L 224.59375 160.5 L 227.28125 156.78125 L 223.75 153.71875 L 220.53125 154.90625 L 221.71875 156.4375 L 219.5 155.9375 L 214.28125 150.53125 L 213.4375 149 L 212.5625 147.46875 z M 174.71875 239.625 L 169.625 245.875 L 168.28125 252.96875 L 158.125 260.4375 L 158.65625 265 L 162.6875 263.125 L 163.5625 261.09375 L 165.75 262.78125 L 170.46875 263.8125 L 170.15625 266.34375 L 171.15625 267.53125 L 173.34375 268.875 L 178.25 275.65625 L 179.9375 275.8125 L 182.15625 274.96875 L 191.28125 275.96875 L 193.3125 275.3125 L 193.65625 272.9375 L 194.8125 271.59375 L 196.84375 272.25 L 204.28125 272.09375 L 212.0625 268.875 L 213.09375 266.5 L 208.84375 265 L 208.6875 266 L 206.84375 267.53125 L 200.75 270.0625 L 198.375 265.65625 L 201.40625 261.28125 L 200.75 259.0625 L 196.1875 257.875 L 192.125 258.40625 L 187.0625 255.6875 L 183 255.53125 L 181.625 254.5 L 181.46875 252.8125 L 186.375 247.90625 L 186.875 246.375 L 187.375 244.875 L 183.15625 245.21875 L 183.34375 239.96875 L 177.59375 241.3125 L 176.90625 240.3125 L 175.5625 241.15625 L 174.71875 239.625 z "
         transform="translate(4.4138,2.07)"
         id="path14976" />
      <path
         style="font-size:12px;opacity:1;fill:#9fb52f;fill-opacity:1;stroke:#4d4d4d;stroke-width:0.25;stroke-linecap:square;stroke-miterlimit:4.04598522;stroke-dasharray:none;stroke-opacity:1"
         d="M 192.46875,51.9375 L 191.09375,52.78125 L 189.0625,52.78125 L 186.53125,55 L 182.3125,55 L 179.9375,57.84375 L 163.5625,54.8125 L 179.78125,58.03125 L 181.96875,61.90625 L 187.21875,66.46875 L 186.53125,68.84375 L 184.5,67.84375 L 189.75,72.21875 L 189.0625,76.125 L 183.65625,75.625 L 188.40625,76.125 L 190.78125,77.8125 L 189.0625,82.375 L 188.5625,83.21875 L 187.71875,82.875 L 188.21875,82.03125 L 187.5625,82.875 L 188.40625,83.5625 L 186.875,82.875 L 187.90625,86.09375 L 186.1875,83.90625 L 184.1875,80.84375 L 185.6875,83.5625 L 183.65625,83.40625 L 182.3125,81.53125 L 183.34375,81.6875 L 180.625,79.5 L 183.15625,80.53125 L 177.59375,77.3125 L 177.25,76.96875 L 177.75,76.625 L 181.125,77.8125 L 181.625,76.625 L 178.4375,76.125 L 179.4375,75.09375 L 181.8125,75.4375 L 181.96875,74.78125 L 180.78125,74.78125 L 181.96875,72.75 L 176.0625,77.125 L 166.75,72.75 L 163.375,69.6875 L 162.03125,70.03125 L 162.6875,69.1875 L 161.6875,69.03125 L 157.125,63.78125 L 155.25,63.09375 L 153.5625,63.59375 L 153.0625,63.4375 L 154.09375,62.59375 L 153.0625,63.28125 L 152.5625,62.75 L 161,55.3125 L 151.21875,63.28125 L 150.6875,62.75 L 149,66.65625 L 149,70.03125 L 147.3125,71.0625 L 145.28125,71.0625 L 144.09375,69.1875 L 142.25,68.34375 L 141.75,69.53125 L 136.3125,70.375 L 132.78125,69.1875 L 133.78125,71.5625 L 132.28125,76.125 L 134.3125,87.96875 L 133.4375,95.0625 L 133.4375,95.40625 L 137.34375,99.78125 L 139.1875,99.46875 L 141.5625,101.15625 L 148.5,103.34375 L 149.84375,104.53125 L 152.5625,103.1875 L 157.125,104.53125 L 159.5,106.375 L 164.40625,108.40625 L 169.28125,112.96875 L 175.21875,117.875 L 182.3125,124.125 L 181.96875,125.3125 L 182.8125,128.71875 L 186.71875,133.59375 L 187.5625,134.96875 L 188.21875,135.625 L 189.75,135.625 L 189.9375,136.65625 L 187.90625,140.53125 L 190.59375,142.0625 L 192.28125,144.4375 L 191.9375,145.9375 L 193.3125,148.15625 L 197.6875,149.15625 L 200.25,152.375 L 202.4375,153.40625 L 211.90625,150.1875 L 212.5625,147.46875 L 214.28125,150.53125 L 219.5,155.9375 L 221.71875,156.4375 L 220.53125,154.90625 L 223.75,153.71875 L 227.28125,156.78125 L 224.59375,160.5 L 226.09375,161.84375 L 229.3125,159.46875 L 233.03125,162 L 235.75,162.53125 L 236.25,163.875 L 237.09375,164.03125 L 237.9375,161.34375 L 235.90625,159.3125 L 237.78125,159.65625 L 239.625,158.96875 L 243.34375,161.34375 L 244.6875,160.84375 L 244.53125,159.46875 L 248.40625,163.03125 L 249.9375,162.875 L 251.8125,160.5 L 254.34375,161.5 L 255.1875,163.875 L 252.65625,168.28125 L 259.40625,171.8125 L 256.71875,167.75 L 255.875,164.03125 L 257.71875,160.5 L 261.28125,157.125 L 263.125,149.5 L 265,147.3125 L 269.375,145.4375 L 270.5625,145.9375 L 270.21875,144.78125 L 272.59375,144.09375 L 275.65625,139.53125 L 277.84375,140.875 L 280.53125,137.5 L 284.4375,138 L 285.09375,137.5 L 283.9375,134.96875 L 284.25,132.59375 L 283.40625,132.09375 L 283.59375,130.40625 L 283.59375,129.5625 L 284.25,128.875 L 286.28125,130.21875 L 286.8125,129.21875 L 289.84375,128.375 L 290.1875,126.15625 L 294.0625,122.4375 L 294.25,119.0625 L 292.71875,118.0625 L 294.40625,118.21875 L 295.09375,117.03125 L 293.71875,116.03125 L 295.75,115.6875 L 295.75,116.375 L 298.125,117.875 L 300.65625,112.65625 L 297.4375,111.8125 L 295.9375,109.78125 L 287.65625,103.34375 L 284.59375,106.71875 L 280.71875,103 L 279.6875,103.84375 L 279.03125,103.5 L 278.6875,104.875 L 277.34375,103.6875 L 276.5,104.1875 L 275.8125,104.53125 L 272.9375,102.65625 L 269.90625,99.125 L 265.3125,97.4375 L 256.53125,90.84375 L 254.34375,89.3125 L 249.28125,88.8125 L 248.59375,88.625 L 247.25,91 L 247.25,92 L 249.09375,92.1875 L 248.9375,93.03125 L 247.75,93.03125 L 247.5625,93.71875 L 245.03125,91.5 L 245.71875,90.5 L 246.0625,87.78125 L 245.71875,87.78125 L 245.21875,87.625 L 244.53125,86.4375 L 244.6875,85.59375 L 243.1875,83.21875 L 240.46875,82.875 L 240.125,83.0625 L 239.125,81.6875 L 238.9375,81.375 L 238.09375,80 L 236.9375,79.15625 L 235.0625,77.96875 L 235.0625,76.78125 L 234.21875,76.96875 L 234.375,74.09375 L 232.6875,72.75 L 232.03125,74.25 L 232.53125,77.125 L 230.65625,79.65625 L 225.25,79.15625 L 221.375,73.9375 L 219.34375,73.59375 L 218.15625,72.5625 L 216.96875,71.5625 L 213.4375,69.03125 L 212.40625,67.5 L 211.21875,65.8125 L 208.6875,63.59375 L 199.0625,59.875 L 194.65625,55.3125 L 192.78125,56.6875 L 193.65625,56 L 194.65625,55.3125 L 192.46875,51.9375 z M 232.34375,158.46875 L 231.5,158.625 L 230.5,158.625 L 232.34375,158.46875 z "
         transform="translate(4.4138,2.07)"
         id="path14560"
         sodipodi:nodetypes="cccccccccccccccccccccccccccccccccccccccccccccccccccccccccccccccccccccccccccccccccccccccccccccccccccccccccccccccccccccccccccccccccccccccccccccccccccccccccccccccccccccccccccccccccccccccccccccccccccccccccccccccccccccccccccccccccccccc" />
      <path
         style="font-size:12px;opacity:1;fill:#d5deaf;fill-opacity:1;stroke:#4d4d4d;stroke-width:0.25;stroke-linecap:square;stroke-miterlimit:4.00004864;stroke-dasharray:none;stroke-opacity:1"
         d="M 379.375,216.34375 L 379.125,216.625 L 378.875,216.625 L 374.125,218.1875 L 360.90625,220.3125 L 355.125,219.25 L 353,217.9375 L 348,217.9375 L 344.28125,217.15625 L 332.6875,224.53125 L 332.9375,229.28125 L 334.53125,229.8125 L 336.375,232.4375 L 338.21875,233.5 L 342.71875,239.84375 L 344.28125,240.625 L 344.03125,246.96875 L 345.625,249.59375 L 344.28125,254.625 L 340.34375,253.84375 L 336.125,250.65625 L 336.375,249.09375 L 334.78125,250.9375 L 330.84375,248.28125 L 327.9375,251.1875 L 326.875,250.9375 L 324.75,252.25 L 322.65625,253.5625 L 322.125,252.5 L 320.53125,253.5625 L 317.625,250.65625 L 316.3125,250.40625 L 315.53125,248.5625 L 313.9375,249.09375 L 311.03125,248.5625 L 305.21875,252.5 L 303.375,251.71875 L 302.84375,249.59375 L 301,246.71875 L 298.625,247.21875 L 297.3125,250.65625 L 296.25,250.9375 L 293.625,250.125 L 288.875,250.9375 L 288.09375,250.40625 L 287.03125,249.59375 L 286.75,248.5625 L 284.125,246.96875 L 282.53125,246.71875 L 280.6875,246.71875 L 267.5,246.4375 L 261.4375,242.46875 L 256.9375,241.15625 L 250.34375,236.9375 L 242.4375,238 L 240.5625,238.78125 L 239.78125,240.375 L 241.375,240.625 L 236.875,245.90625 L 228.96875,248.03125 L 230.03125,248.28125 L 230.28125,250.40625 L 229.5,251.1875 L 229.75,254.34375 L 228.96875,256.71875 L 226.0625,257.25 L 224.75,256.71875 L 222.375,257.78125 L 218.9375,261.21875 L 218.65625,263.34375 L 216.03125,264.90625 L 213.125,266.5 L 212.0625,269.125 L 213.40625,269.65625 L 213.40625,274.15625 L 211.8125,276 L 210.75,279.96875 L 211.53125,282.0625 L 210.75,283.65625 L 207.59375,283.65625 L 207.3125,288.40625 L 206,293.6875 L 206.78125,295.28125 L 205.21875,300.28125 L 211.8125,304.25 L 217.34375,306.09375 L 221.03125,305.8125 L 223.9375,303.96875 L 224.46875,300.53125 L 233.71875,303.4375 L 235.8125,306.875 L 239.25,308.46875 L 245.3125,306.625 L 247.6875,306.875 L 248.75,309 L 253.5,313.46875 L 254.3125,312.6875 L 264.59375,314.28125 L 273.3125,314.8125 L 273.5625,313.21875 L 278.3125,312.6875 L 282.28125,307.15625 L 283.59375,308.71875 L 290.71875,312.9375 L 291.5,312.6875 L 291.5,310.84375 L 292.5625,311.90625 L 298.09375,312.9375 L 300.21875,315.59375 L 301.8125,315.84375 L 302.84375,316.90625 L 307.875,317.96875 L 310.5,317.4375 L 314.71875,318.75 L 314.71875,318.5 L 315.78125,318.75 L 317.625,315.84375 L 323.4375,315.59375 L 326.34375,311.90625 L 325.28125,308.71875 L 323.4375,306.875 L 323.4375,304.78125 L 322.125,304.5 L 321.84375,301.59375 L 323.71875,298.6875 L 320.28125,297.125 L 321.34375,294.75 L 322.375,294.21875 L 322.375,291.5625 L 324.75,291.03125 L 325.03125,287.09375 L 328.46875,289.71875 L 329.5,293.40625 L 332.6875,292.90625 L 336.375,301.59375 L 338.5,301.59375 L 340.0625,300.28125 L 341.90625,297.125 L 342.96875,297.375 L 342.4375,298.15625 L 343.75,298.6875 L 349.03125,298.4375 L 350.09375,295.53125 L 344.03125,295.53125 L 345.875,288.65625 L 346.9375,291.5625 L 350.375,289.1875 L 353.25,291.03125 L 354.59375,291.03125 L 354.59375,288.65625 L 355.90625,285.25 L 357.21875,284.71875 L 356.96875,281 L 359.34375,278.90625 L 356.96875,275.46875 L 358.28125,273.875 L 360.90625,272.84375 L 358.53125,268.875 L 357.75,264.90625 L 359.34375,260.4375 L 361.96875,261.5 L 364.34375,260.6875 L 365.40625,260.96875 L 372.78125,255.15625 L 376.21875,253.84375 L 378.59375,254.34375 L 382.03125,251.46875 L 382.03125,247.21875 L 383.875,245.375 L 386.25,240.375 L 388.625,240.625 L 386.78125,236.6875 L 384.65625,232.96875 L 382.03125,230.34375 L 381.5,226.375 L 378.875,223.75 L 379.65625,222.9375 L 381.75,222.9375 L 379.375,218.46875 L 380.1875,217.15625 L 379.375,216.34375 z "
         transform="translate(4.4138,2.07)"
         id="path2523" />
      <path
         style="font-size:12px;opacity:1;fill:#a3c930;fill-opacity:1;stroke:#4d4d4d;stroke-width:0.25;stroke-linecap:square;stroke-miterlimit:4;stroke-dasharray:none;stroke-opacity:1"
         d="M 452.3125,165.34375 L 451.0625,165.71875 L 449.78125,165.875 L 448.53125,169.3125 L 440.375,173.65625 L 438.9375,173.65625 L 438.9375,172.9375 L 437.125,173.84375 L 433.3125,172.03125 L 431.6875,173.125 L 430.4375,172.75 L 428.96875,170.78125 L 428.25,171.5 L 426.625,170.78125 L 425.53125,171.84375 L 423.90625,171.5 L 424.46875,170.59375 L 420.84375,169.3125 L 417.59375,169.15625 L 414.15625,173.3125 L 408.53125,170.21875 L 407.46875,167.34375 L 405.46875,166.4375 L 404.03125,168.59375 L 403.125,169.875 L 397.15625,170.9375 L 396.59375,172.03125 L 394.625,171.84375 L 393.875,174.375 L 395.875,177.46875 L 397.6875,180 L 396.4375,186.3125 L 399.5,195.5625 L 397.5,198.28125 L 395.875,210.375 L 397.5,210.75 L 397.15625,211.28125 L 392.4375,214.375 L 387.375,211.46875 L 382.125,213.46875 L 379.78125,213.46875 L 379.25,214.5625 L 378.875,215.4375 L 379.59375,216.1875 L 378.6875,217.4375 L 381.21875,221.96875 L 379.0625,221.96875 L 378.34375,222.875 L 380.875,225.40625 L 381.40625,229.5625 L 384.125,232.09375 L 386.28125,235.90625 L 387.90625,240.0625 L 385.75,239.875 L 383.40625,244.75 L 381.40625,246.5625 L 381.40625,250.90625 L 377.96875,254 L 375.625,253.25 L 372.1875,254.53125 L 364.59375,260.5 L 363.5,260.125 L 361.15625,260.84375 L 358.625,259.96875 L 356.8125,264.28125 L 357.71875,268.46875 L 358.96875,270.4375 L 360.0625,272.4375 L 357.34375,273.53125 L 356.8125,274.25 L 356.09375,275.15625 L 358.625,278.59375 L 359.6875,280.21875 L 362.40625,280.9375 L 365.125,285.09375 L 368.21875,285.46875 L 368.9375,286.90625 L 370.90625,286.375 L 377.4375,288.1875 L 378.6875,291.25 L 379.78125,292.875 L 381.03125,292.875 L 381.9375,291.0625 L 382.6875,288.90625 L 381.59375,284.5625 L 383.9375,279.84375 L 396.0625,286.90625 L 398.40625,287.4375 L 405.28125,284.375 L 407.09375,284 L 412.875,286 L 417.40625,288.90625 L 421.21875,288.1875 L 422.28125,287.625 L 426.09375,288.1875 L 430.4375,289.625 L 435.6875,287.4375 L 439.84375,288.90625 L 442.375,291.4375 L 444,291.0625 L 446,291.96875 L 449.40625,293.78125 L 451.59375,293.25 L 454.84375,294.3125 L 458.46875,292.53125 L 458.8125,291.625 L 458.09375,288.53125 L 455.03125,285.28125 L 455.21875,283.125 L 452.3125,281.125 L 453.40625,275.6875 L 453.21875,272.4375 L 450.875,271.34375 L 452.5,268.46875 L 458.09375,264.28125 L 459.375,260.125 L 457.75,258.875 L 456.28125,256.15625 L 456.28125,252.71875 L 455.21875,251.4375 L 457.1875,248.5625 L 456.125,246.21875 L 452.5,243.6875 L 453.21875,241.3125 L 455.75,238.25 L 451.21875,234.8125 L 448.34375,228.125 L 450.15625,225.59375 L 458.28125,222.5 L 458.09375,220.34375 L 459.71875,215.09375 L 461.53125,208.40625 L 462.4375,207.84375 L 461.1875,206.40625 L 461,204.25 L 464.625,201.53125 L 464.25,200.4375 L 462.8125,200.0625 L 462.8125,197.1875 L 461.1875,195.1875 L 459.5625,193.375 L 458.8125,189.9375 L 455.75,189.9375 L 456.125,186.875 L 453.21875,184.6875 L 452.84375,181.09375 L 454.5,179.09375 L 453.40625,176.1875 L 454.84375,171.6875 L 453.03125,169.15625 L 453.40625,167.15625 L 452.3125,165.34375 z "
         transform="translate(4.4138,2.07)"
         id="path12480"
         sodipodi:nodetypes="cccccccccccccccccccccccccccccccccccccccccccccccccccccccccccccccccccccccccccccccccccccccccccccccccccccccccccccccccccccccccccccccccccccccccccccccccccccccc" />
      <path
         style="font-size:12px;opacity:1;fill:#94b340;fill-opacity:1;stroke:#4d4d4d;stroke-width:0.25;stroke-linecap:square;stroke-miterlimit:4;stroke-dasharray:none;stroke-opacity:1"
         d="M 433.5,82.65625 L 434.03125,84.125 L 433.5,84.3125 L 432.96875,84.46875 L 431.875,85.03125 L 430.0625,89.1875 L 426.625,91.34375 L 425.1875,95.15625 L 423.1875,96.59375 L 421.9375,103.125 L 426.28125,106.375 L 427.90625,110 L 429.53125,111.0625 L 430.96875,114.34375 L 429.15625,117.9375 L 422.46875,123.375 L 423.5625,128.0625 L 421.03125,129.53125 L 420.125,131.875 L 417.03125,134.9375 L 414.15625,137.84375 L 412.6875,139.46875 L 408.53125,140.375 L 404.5625,138.9375 L 401.65625,139.28125 L 400.03125,138.21875 L 398.59375,141.28125 L 398.21875,143.625 L 398.0625,146 L 397.875,147.25 L 399.3125,148.875 L 401.3125,151.59375 L 403.125,151.78125 L 402.21875,159.90625 L 400.9375,163.53125 L 401.84375,163.90625 L 404.03125,168.59375 L 405.46875,166.4375 L 407.46875,167.34375 L 408.53125,170.21875 L 414.15625,173.3125 L 417.59375,169.15625 L 420.84375,169.3125 L 424.46875,170.59375 L 423.90625,171.5 L 425.53125,171.84375 L 426.625,170.78125 L 428.25,171.5 L 428.96875,170.78125 L 430.4375,172.75 L 431.6875,173.125 L 433.3125,172.03125 L 437.125,173.84375 L 438.9375,172.9375 L 438.9375,173.65625 L 440.375,173.65625 L 448.53125,169.3125 L 449.78125,165.875 L 452.3125,165.34375 L 453.03125,163.53125 L 452.6875,160.625 L 455.03125,157.9375 L 453.40625,153.21875 L 456.46875,147.625 L 455.40625,145.8125 L 457.9375,144.90625 L 460.46875,142.71875 L 462.09375,143.09375 L 463.71875,140.75 L 463.71875,138.5625 L 465.15625,135.84375 L 466.4375,135.3125 L 471.65625,140.1875 L 479.4375,144.53125 L 481.625,142.90625 L 484.5,138.9375 L 490.125,131.875 L 489.21875,131.34375 L 489.5625,128.8125 L 488.84375,128.25 L 487.03125,127.53125 L 481.625,127.71875 L 481.0625,119.40625 L 487.9375,108.90625 L 488.84375,108.71875 L 489.75,106 L 493.1875,104.1875 L 492.28125,101.5 L 488.84375,100.21875 L 485.40625,98.78125 L 482.34375,98.78125 L 475.09375,96.96875 L 472.40625,98.0625 L 471.125,97.15625 L 469.875,97.875 L 460.625,94.25 L 459.90625,96.40625 L 456.46875,96.40625 L 455.75,94.625 L 456.28125,94.4375 L 453.21875,92.8125 L 452.3125,93.34375 L 450.15625,91.90625 L 450.15625,90.8125 L 448.875,91.71875 L 446.34375,91.53125 L 444.90625,92.25 L 446.34375,90.8125 L 446.53125,89.375 L 438.21875,84.125 L 433.5,82.65625 z "
         transform="translate(4.4138,2.07)"
         id="path12324" />
      <path
         style="font-size:12px;opacity:1;fill:#c6d46c;fill-opacity:1;stroke:#4d4d4d;stroke-width:0.25;stroke-linecap:square;stroke-miterlimit:4.00112343;stroke-dasharray:none;stroke-opacity:1"
         d="M 301.6875,112.46875 L 300.65625,112.65625 L 298.125,117.875 L 295.75,116.375 L 295.75,115.6875 L 293.71875,116.03125 L 295.09375,117.03125 L 294.40625,118.21875 L 292.71875,118.0625 L 294.25,119.0625 L 294.0625,122.4375 L 290.1875,126.15625 L 289.84375,128.375 L 286.8125,129.21875 L 286.28125,130.21875 L 284.25,128.875 L 283.9375,129.21875 L 283.59375,129.5625 L 283.59375,130.40625 L 283.40625,132.09375 L 284.25,132.59375 L 283.9375,134.96875 L 285.09375,137.5 L 284.4375,138 L 280.53125,137.5 L 277.84375,140.875 L 275.65625,139.53125 L 272.59375,144.09375 L 270.21875,144.78125 L 270.5625,145.9375 L 269.375,145.4375 L 265,147.3125 L 263.125,149.5 L 261.28125,157.125 L 257.71875,160.5 L 255.875,164.03125 L 256.71875,167.75 L 259.40625,171.8125 L 260.59375,169.46875 L 263.3125,168.28125 L 268.03125,168.9375 L 268.875,166.75 L 276.3125,158.8125 L 282.0625,161.6875 L 282.5625,160.84375 L 286.125,161.34375 L 286.625,160.3125 L 286.96875,161.5 L 292.03125,160.5 L 295.4375,162.53125 L 298.46875,160.84375 L 301,163.03125 L 301.6875,162.875 L 302.34375,164.03125 L 308.625,169.625 L 312.65625,171.5 L 318.75,178.59375 L 320.09375,183.15625 L 319.9375,191.4375 L 324.34375,194.8125 L 325.34375,196.84375 L 325.6875,199.5625 L 324.15625,203.9375 L 325.84375,208.6875 L 327.875,210.375 L 329.75,215.28125 L 329.5625,222.375 L 332.4375,227.125 L 333.28125,229.15625 L 333.125,224.25 L 344.78125,217.125 L 348.1875,217.8125 L 353.59375,217.65625 L 355.625,219 L 361.375,220.1875 L 374.5625,217.96875 L 379.4375,216.46875 L 379.96875,216.28125 L 380.8125,214.25 L 383.15625,214.09375 L 388.40625,212.21875 L 393.3125,215.09375 L 398.0625,212.21875 L 398.5625,211.5625 L 396.875,211.21875 L 398.375,199.21875 L 400.40625,196.5 L 397.375,187.375 L 398.5625,180.96875 L 396.6875,178.59375 L 394.84375,175.375 L 395.5,173 L 397.53125,173.1875 L 398.0625,172 L 403.96875,170.96875 L 404.8125,169.625 L 402.78125,165.0625 L 401.78125,164.5625 L 401.78125,164.5625 L 403.125,161.15625 L 403.96875,153.0625 L 402.09375,152.875 L 400.25,150.1875 L 398.71875,148.5 L 398.90625,147.8125 L 398.90625,147.3125 L 396.875,147.125 L 395.1875,145.625 L 394.84375,146.28125 L 390.09375,143.59375 L 388.75,140.21875 L 385.375,139.03125 L 384.1875,137.34375 L 382.15625,136.8125 L 379.625,137.34375 L 376.40625,136.65625 L 372,140.875 L 366.78125,144.4375 L 364.0625,141.90625 L 361.1875,139.1875 L 356.96875,137.34375 L 352.75,139.1875 L 347.3125,141.71875 L 345.3125,140.21875 L 342.59375,140.21875 L 341.0625,142.40625 L 338.71875,141.71875 L 336,143.25 L 333.46875,143.0625 L 332.96875,146.625 L 332.125,147.65625 L 329.90625,148.15625 L 330.25,150.1875 L 328.71875,148.5 L 330.40625,147.3125 L 330.25,146.46875 L 329.25,145.09375 L 327.03125,145.28125 L 327.53125,143.59375 L 329.25,144.09375 L 327.53125,140.21875 L 319.59375,137 L 316.5625,134.96875 L 315.375,134.96875 L 313.1875,132.59375 L 311.3125,131.75 L 308.9375,129.03125 L 311.15625,127.6875 L 311.46875,126.34375 L 310.8125,125.5 L 309.78125,128.375 L 309.125,128.1875 L 309.78125,126.15625 L 306.40625,127.53125 L 305.21875,127.1875 L 306.59375,123.46875 L 306.40625,118.40625 L 303.53125,115.34375 L 304.21875,113.65625 L 301.6875,112.46875 z M 284.59375,133.09375 L 285.4375,134.625 L 285.96875,136.46875 L 285.78125,136.46875 L 284.9375,134.28125 L 284.59375,133.09375 z "
         transform="translate(4.4138,2.07)"
         id="path14832"
         sodipodi:nodetypes="cccccccccccccccccccccccccccccccccccccccccccccccccccccccccccccccccccccccccccccccccccccccccccccccccccccccccccccccccccccccccccccccccccccccccccccccccccccccccccccccccccccc" />
      <path
         style="font-size:12px;opacity:1;fill:#a9bd88;fill-opacity:1;stroke:#4d4d4d;stroke-width:0.25;stroke-linecap:square;stroke-miterlimit:4;stroke-dasharray:none;stroke-opacity:1"
         d="M 654.53125,55.90625 L 654,58.25 L 652.90625,58.625 L 649.65625,66.375 L 648.75,66.21875 L 645.5,68.9375 L 639.15625,71.625 L 636.28125,73.625 L 631.5625,74.34375 L 633.75,75.625 L 633.375,76.34375 L 631.5625,76.53125 L 630.3125,75.625 L 629.9375,74.34375 L 626.15625,74.53125 L 623.0625,76.53125 L 622.34375,76.15625 L 622.53125,74.90625 L 617.46875,73.09375 L 617.09375,74.34375 L 615.65625,74.34375 L 615.28125,75.4375 L 613.3125,74.53125 L 613.65625,79.0625 L 610.21875,80.5 L 610.40625,81.21875 L 606.625,79.21875 L 604.4375,80.875 L 607.875,83.03125 L 605.875,85.5625 L 602.625,85.9375 L 600.09375,84.46875 L 599.90625,82.5 L 598.65625,81.21875 L 596.84375,81.59375 L 596.46875,83.03125 L 592.875,82.3125 L 592.125,83.21875 L 587.25,84.125 L 586.15625,85.375 L 584,85.21875 L 582,87.1875 L 573.34375,89 L 572.0625,91 L 568.25,90.625 L 566.625,94.625 L 567.71875,98.0625 L 565.375,100.40625 L 565.71875,102.03125 L 563.375,103.46875 L 564.09375,105.65625 L 563.1875,108.34375 L 564.46875,111.0625 L 564.09375,111.96875 L 564.8125,118.65625 L 567.90625,122.84375 L 567.53125,123.75 L 569,127.1875 L 575.3125,128.96875 L 576.59375,126.8125 L 578.03125,126.8125 L 579.84375,125.375 L 581.84375,126.4375 L 583.8125,125.375 L 582.90625,125.90625 L 581.84375,126.4375 L 579.84375,128.625 L 579.3125,130.78125 L 580.03125,134.0625 L 582.375,134.78125 L 584,133.15625 L 584.53125,134.78125 L 586.90625,135.84375 L 583.8125,136.40625 L 583.46875,138.5625 L 581.84375,139.46875 L 585.4375,146 L 586.90625,146.71875 L 586.34375,147.4375 L 588.34375,147.0625 L 588.15625,148.53125 L 587.4375,148.34375 L 586.90625,149.59375 L 589.25,151.0625 L 591.0625,150.34375 L 595.03125,153.59375 L 597.375,151.78125 L 601.1875,158.09375 L 602.09375,158.84375 L 604.25,158.28125 L 606.78125,158.28125 L 609.6875,156.3125 L 610.0625,155.21875 L 612.21875,153.75 L 616.90625,153.40625 L 620,156.65625 L 624.53125,160.625 L 628.5,161.53125 L 632.125,164.96875 L 635.5625,165.875 L 634.84375,162.28125 L 635,157.9375 L 638.09375,153.59375 L 639.53125,147.96875 L 638.4375,145.09375 L 638.4375,138.375 L 637.1875,137.46875 L 639.34375,135.125 L 640.25,136.75 L 639.71875,137.46875 L 639.90625,138.9375 L 642.59375,140.03125 L 640.4375,140.75 L 642.59375,144 L 646.03125,144.90625 L 647.125,144.53125 L 648.03125,146.15625 L 648.75,143.625 L 648.21875,142.375 L 649.3125,142.1875 L 651.46875,146.34375 L 651.28125,144.1875 L 651.46875,143.28125 L 652.375,143.625 L 654.1875,144.1875 L 654.1875,142.71875 L 653.09375,142.375 L 654,141.28125 L 653.28125,140.375 L 652.375,142 L 652.5625,140.5625 L 651.65625,140.1875 L 654.1875,139.84375 L 654.53125,138.75 L 651.84375,138.5625 L 653.09375,137.125 L 652,136.03125 L 652.90625,134.78125 L 651.65625,134.40625 L 653.28125,132.25 L 654,132.78125 L 655.09375,135.5 L 657.09375,133.15625 L 657.25,135.3125 L 658.34375,136.40625 L 657.625,136.40625 L 658.34375,137.65625 L 657.4375,140.03125 L 658.875,141.28125 L 658.71875,142.90625 L 659.4375,143.46875 L 660.15625,143.28125 L 660.15625,140.1875 L 662.6875,141.28125 L 662.5,140.1875 L 661.40625,139.65625 L 663.40625,139.46875 L 663.21875,138.03125 L 664.125,136.9375 L 663.59375,135.125 L 664.6875,134.21875 L 664.6875,136.40625 L 665.75,136.75 L 666.46875,136.03125 L 668.46875,136.59375 L 670.28125,135.5 L 670.46875,136.40625 L 671.1875,136.03125 L 670.46875,133.875 L 671.71875,134.59375 L 672.625,133.6875 L 674.625,133.875 L 675.53125,132.25 L 676.0625,129.15625 L 676.96875,128.0625 L 681.6875,127.90625 L 682.40625,127.34375 L 682.9375,124.8125 L 685.46875,124.46875 L 686.75,123.375 L 686.375,119.75 L 687.46875,117.9375 L 686.5625,113.78125 L 688,110.53125 L 686.9375,106.71875 L 690,104.90625 L 691.28125,100.9375 L 690.375,98.9375 L 687.65625,96.59375 L 684.5625,95.6875 L 680.96875,93.53125 L 678.59375,90.625 L 670.65625,87 L 663.9375,80.125 L 662.6875,79.78125 L 663.21875,78.34375 L 663.78125,77.0625 L 660.6875,69.46875 L 654.53125,55.90625 z M 647.6875,85.375 L 647.6875,86.28125 L 647.5,87.1875 L 647.6875,85.375 z "
         transform="translate(4.4138,2.07)"
         id="path12296"
         sodipodi:nodetypes="ccccccccccccccccccccccccccccccccccccccccccccccccccccccccccccccccccccccccccccccccccccccccccccccccccccccccccccccccccccccccccccccccccccccccccccccccccccccccccccccccccccccccccccccccccccccccccccccccccccccccccc" />
      <path
         style="font-size:12px;opacity:1;fill:#b3d450;fill-opacity:1;stroke:#4d4d4d;stroke-width:0.25;stroke-linecap:square;stroke-miterlimit:4.00006247;stroke-dasharray:none;stroke-opacity:1"
         d="M 359.34375,278.90625 L 356.96875,281 L 357.21875,284.71875 L 355.90625,285.25 L 354.59375,288.65625 L 354.59375,291.03125 L 353.25,291.03125 L 350.375,289.1875 L 346.9375,291.5625 L 345.875,288.65625 L 344.03125,295.53125 L 350.09375,295.53125 L 349.03125,298.4375 L 343.75,298.6875 L 342.4375,298.15625 L 342.96875,297.375 L 341.90625,297.125 L 340.0625,300.28125 L 338.5,301.59375 L 336.375,301.59375 L 332.6875,292.90625 L 329.5,293.40625 L 328.46875,289.71875 L 325.03125,287.09375 L 324.75,291.03125 L 322.375,291.5625 L 322.375,294.21875 L 321.34375,294.75 L 320.28125,297.125 L 323.71875,298.6875 L 321.84375,301.59375 L 322.125,304.5 L 323.4375,304.78125 L 323.4375,306.875 L 325.28125,308.71875 L 326.34375,311.90625 L 323.4375,315.59375 L 317.625,315.84375 L 315.78125,318.75 L 314.71875,318.5 L 314.71875,318.75 L 310.5,317.4375 L 307.875,317.96875 L 302.84375,316.90625 L 301.8125,315.84375 L 300.21875,315.59375 L 298.09375,312.9375 L 292.5625,311.90625 L 291.5,310.84375 L 291.5,312.6875 L 290.71875,312.9375 L 283.59375,308.71875 L 283.0625,307.9375 L 282.28125,307.15625 L 278.3125,312.6875 L 273.5625,313.21875 L 273.3125,314.8125 L 264.59375,314.28125 L 262.46875,317.1875 L 263,318.5 L 260.90625,321.9375 L 256.40625,325.875 L 254.8125,329.84375 L 254.5625,333.53125 L 255.625,335.90625 L 254.3125,337.21875 L 257.1875,340.125 L 257.1875,341.96875 L 256.40625,343.3125 L 257.71875,345.6875 L 261.9375,348.3125 L 260.625,350.15625 L 255.625,351.5 L 254.5625,352.28125 L 251.65625,352.53125 L 249.03125,352.8125 L 245.59375,362.3125 L 245.0625,365.75 L 246.375,371.03125 L 244.8125,372.34375 L 249.03125,373.125 L 256.9375,376.03125 L 262.21875,378.9375 L 264.3125,381.3125 L 265.90625,385.53125 L 269.59375,382.375 L 272.5,381.5625 L 279.375,380.78125 L 285.4375,380.78125 L 287.8125,380.25 L 290.1875,381.03125 L 293.875,380.25 L 299.96875,381.3125 L 304.71875,380 L 306.28125,381.5625 L 309.96875,383.15625 L 313.40625,385.78125 L 316.84375,385.53125 L 319.75,386.84375 L 320.28125,388.4375 L 326.34375,387.90625 L 330.84375,392.125 L 331.09375,390.8125 L 336.90625,392.125 L 337.4375,394.78125 L 340.0625,395.03125 L 340.875,396.34375 L 342.1875,395.3125 L 344.28125,396.09375 L 345.34375,395.8125 L 348.78125,392.9375 L 350.09375,393.71875 L 351.40625,392.9375 L 352.75,394.25 L 354.84375,392.9375 L 357.75,392.9375 L 360.65625,388.15625 L 363.28125,387.65625 L 364.875,385.28125 L 366.1875,385 L 369.375,386.3125 L 370.9375,385.28125 L 371.75,386.0625 L 373.3125,385.53125 L 374.375,385.28125 L 375.15625,385.28125 L 380.71875,384.46875 L 382.28125,384.75 L 384.125,383.6875 L 385.71875,382.90625 L 388.375,383.15625 L 395.5,382.375 L 396.28125,381.3125 L 398.40625,381.84375 L 400.78125,380.25 L 402.875,380.25 L 406.5625,383.6875 L 408.9375,384.21875 L 413.15625,382.375 L 416.875,382.90625 L 422.15625,379.46875 L 424.78125,380.53125 L 430.0625,376.8125 L 430.3125,373.90625 L 436.65625,372.59375 L 442.71875,373.65625 L 452.75,373.65625 L 459.34375,373.40625 L 468.3125,367.84375 L 468.59375,366.25 L 472.28125,360.46875 L 476.78125,359.65625 L 481.78125,356.75 L 481,354.65625 L 478.34375,352.28125 L 477.3125,350.15625 L 481.78125,348.3125 L 488.65625,349.375 L 493.9375,352.8125 L 495.5,350.96875 L 498.40625,349.625 L 507.125,347.25 L 505.28125,339.59375 L 504.46875,331.4375 L 505,328 L 500,324.03125 L 500.78125,322.4375 L 498.9375,320.875 L 491.8125,319.28125 L 484.96875,319.03125 L 483.625,316.90625 L 484.4375,315.84375 L 481.53125,311.90625 L 479.6875,305.8125 L 478.625,305.03125 L 476.78125,305.8125 L 474.9375,305.5625 L 473.875,304.25 L 472.5625,303.71875 L 471.21875,303.1875 L 468.0625,301.59375 L 464.625,300.28125 L 462.25,298.4375 L 459.875,296.84375 L 459.34375,294.21875 L 458.3125,292.625 L 454.59375,294.46875 L 451.4375,293.40625 L 449.3125,293.9375 L 447.75,292.90625 L 445.90625,292.09375 L 443.78125,291.3125 L 442.1875,291.5625 L 439.8125,289.1875 L 435.59375,287.625 L 430.59375,289.71875 L 426.375,288.40625 L 422.40625,287.875 L 421.875,288.15625 L 421.34375,288.40625 L 417.65625,289.1875 L 413.15625,286.28125 L 407.375,284.1875 L 406.5625,284.4375 L 405.53125,284.71875 L 398.90625,287.625 L 396.53125,287.09375 L 384.40625,280.21875 L 382.28125,284.71875 L 383.34375,289.1875 L 382.5625,291.03125 L 381.5,293.15625 L 380.4375,292.90625 L 379.375,291.5625 L 378.0625,288.40625 L 371.75,286.5625 L 369.625,287.09375 L 368.84375,285.78125 L 365.9375,285.25 L 363.28125,281.28125 L 360.65625,280.5 L 359.34375,278.90625 z "
         transform="translate(4.4138,2.07)"
         id="path2547"
         sodipodi:nodetypes="cccccccccccccccccccccccccccccccccccccccccccccccccccccccccccccccccccccccccccccccccccccccccccccccccccccccccccccccccccccccccccccccccccccccccccccccccccccccccccccccccccccccccccccccccccccccccccccccccccccccccccccccccccccccccccccc" />
      <path
         style="font-size:12px;opacity:1;fill:#dbf584;fill-opacity:1;stroke:#4d4d4d;stroke-width:0.25;stroke-linecap:square;stroke-miterlimit:4;stroke-dasharray:none;stroke-opacity:1"
         d="M 436.65625,372.59375 L 430.3125,373.90625 L 430.0625,376.8125 L 424.78125,380.53125 L 422.15625,379.46875 L 416.875,382.90625 L 413.15625,382.375 L 408.9375,384.21875 L 406.5625,383.6875 L 402.875,380.25 L 400.78125,380.25 L 398.40625,381.84375 L 396.28125,381.3125 L 395.5,382.375 L 388.375,383.15625 L 385.71875,382.90625 L 382.28125,384.75 L 380.71875,384.46875 L 375.15625,385.28125 L 373.3125,385.53125 L 371.75,386.0625 L 370.9375,385.28125 L 369.375,386.3125 L 366.1875,385 L 364.875,385.28125 L 363.28125,387.65625 L 360.65625,388.15625 L 357.75,392.9375 L 357.75,395.5625 L 361.71875,399.25 L 361.96875,403.46875 L 363.03125,404.28125 L 368.84375,401.625 L 372.25,399.25 L 373.0625,397.15625 L 375.6875,397.15625 L 375.96875,398.46875 L 375.4375,402.4375 L 373.3125,405.84375 L 374.125,409.03125 L 373.3125,411.65625 L 372.25,411.40625 L 370.9375,414.03125 L 369.875,418 L 363.03125,426.1875 L 361.96875,426.1875 L 358.53125,423.53125 L 357.5,427.21875 L 355.375,428.28125 L 355.125,434.375 L 357.21875,434.625 L 361.1875,437.78125 L 367.78125,446.5 L 367.25,449.40625 L 368.03125,449.65625 L 369.875,449.9375 L 372.25,448.34375 L 380.1875,449.40625 L 383.625,439.375 L 385.1875,438.84375 L 390.75,440.96875 L 390.46875,451.5 L 392.84375,457.3125 L 392.84375,461.8125 L 390.21875,462.59375 L 384.40625,466.03125 L 379.90625,466.8125 L 378.875,464.96875 L 380.4375,462.59375 L 378.59375,460.21875 L 376.75,459.96875 L 375.15625,460.75 L 375.15625,461.28125 L 373.3125,462.875 L 365.125,458.90625 L 359.0625,459.4375 L 358.53125,461.03125 L 357.21875,460.21875 L 353.53125,461.8125 L 352.46875,461.28125 L 351.40625,460.75 L 350.09375,461.28125 L 349.5625,464.71875 L 346.9375,470.53125 L 339.53125,469.71875 L 339.28125,467.875 L 336.125,467.625 L 334.25,465.5 L 335.3125,463.90625 L 332.40625,463.90625 L 334,459.6875 L 339.8125,462.34375 L 340.59375,459.96875 L 342.1875,459.96875 L 343.5,460.21875 L 337.6875,453.90625 L 336.90625,448.875 L 334.78125,447.5625 L 331.625,451 L 330.03125,449.125 L 326.875,449.40625 L 326.09375,448.09375 L 318.15625,446.25 L 315.78125,446.75 L 311.84375,449.125 L 312.09375,452.3125 L 310.5,453.375 L 307.09375,452.5625 L 303.65625,453.375 L 302.59375,452.84375 L 297.59375,457.3125 L 296.53125,459.96875 L 293.875,460.21875 L 293.625,461.03125 L 294.9375,461.8125 L 293.875,466.5625 L 292.84375,465.5 L 284.65625,466.03125 L 283.59375,467.34375 L 280.4375,467.34375 L 279.09375,470 L 281.21875,468.65625 L 285.6875,471.5625 L 287.03125,473.9375 L 290.96875,476.84375 L 291.78125,475.28125 L 294.9375,477.375 L 297.84375,474.75 L 301.28125,475.28125 L 302.84375,477.125 L 305.5,478.1875 L 306.5625,480.28125 L 310.25,484.5 L 315.53125,487.9375 L 324.21875,490.5625 L 325.5625,490.3125 L 331.625,492.15625 L 341.125,489.53125 L 346.40625,485.5625 L 348.5,485.03125 L 353,485.5625 L 360.125,487.9375 L 366.71875,487.9375 L 378.34375,482.9375 L 381.75,481.0625 L 389.9375,478.96875 L 393.375,477.90625 L 398.65625,478.1875 L 399.4375,478.1875 L 399.96875,478.4375 L 407.09375,480.5625 L 408.15625,478.96875 L 408.40625,478.96875 L 411.84375,472.375 L 414.5,472.09375 L 416.59375,468.40625 L 417.65625,468.40625 L 418.4375,468.15625 L 418.71875,467.875 L 418.4375,465.25 L 420.5625,461.03125 L 428.75,457.0625 L 428.75,454.9375 L 433.75,453.09375 L 434.5625,452.3125 L 439.5625,454.15625 L 443,453.375 L 450.65625,458.90625 L 448.53125,460.75 L 452.5,463.125 L 450.90625,466.28125 L 448.28125,467.09375 L 448.53125,468.15625 L 453.5625,467.34375 L 454.875,466.5625 L 462.53125,468.15625 L 467,464.4375 L 468.84375,461.28125 L 472.5625,460.5 L 476.25,458.65625 L 477.5625,457.84375 L 482.84375,458.375 L 483.90625,458.375 L 484.6875,458.65625 L 486.53125,456.28125 L 486.28125,448.875 L 484.4375,443.59375 L 479.9375,447.8125 L 478.09375,447.28125 L 477.03125,442.28125 L 474.9375,441.21875 L 476.5,438.0625 L 475.1875,429.59375 L 476.5,426.4375 L 474.125,420.90625 L 473.0625,421.96875 L 472.5625,421.4375 L 472.03125,419.84375 L 471.75,418 L 473.59375,415.34375 L 474.65625,409.5625 L 477.03125,411.125 L 479.15625,411.40625 L 479.9375,411.40625 L 486,409.03125 L 486.8125,407.96875 L 487.0625,407.4375 L 489.71875,407.4375 L 491.8125,407.96875 L 492.34375,407.96875 L 492.875,407.4375 L 494.71875,404.53125 L 495.78125,404.53125 L 496.84375,404.53125 L 496.03125,402.15625 L 495.78125,402.15625 L 494.71875,399.53125 L 494.1875,398.1875 L 493.40625,394.78125 L 492.34375,393.1875 L 491.28125,387.125 L 489.1875,383.9375 L 487.59375,384.21875 L 484.6875,381.03125 L 478.09375,377.34375 L 477.5625,378.65625 L 475.96875,377.875 L 473.59375,377.875 L 474.40625,381.03125 L 478.34375,385.28125 L 479.15625,389.21875 L 476.25,389.21875 L 471.21875,387.375 L 469.90625,387.90625 L 469.125,390.03125 L 467,392.40625 L 464.625,392.65625 L 463.0625,394.25 L 458.5625,395.8125 L 457.78125,395.03125 L 451.96875,387.375 L 454.59375,383.40625 L 452.75,373.65625 L 442.71875,373.65625 L 439.5625,373.125 L 436.65625,372.59375 z "
         transform="translate(4.4138,2.07)"
         id="path2663" />
      <path
         style="font-size:12px;opacity:1;fill:#dafa39;fill-opacity:1;stroke:#4d4d4d;stroke-width:0.25;stroke-linecap:square;stroke-miterlimit:4;stroke-dasharray:none;stroke-opacity:1"
         d="M 103.34375,293.6875 L 98.84375,296.84375 L 98.84375,302.90625 L 97,303.71875 L 94.625,308.1875 L 93.59375,314.53125 L 81.6875,320.34375 L 82.21875,328.53125 L 78,329.59375 L 79.59375,334.84375 L 102.8125,360.1875 L 106.25,362.03125 L 111,361.78125 L 104.125,355.4375 L 109.40625,352.28125 L 110.46875,348.3125 L 113.09375,346.21875 L 117.0625,338.28125 L 124.1875,345.15625 L 129.21875,345.6875 L 133.6875,342.78125 L 135.8125,338.8125 L 138.4375,337.21875 L 138.71875,334.59375 L 143.71875,326.15625 L 146.375,326.40625 L 147.9375,327.46875 L 149,328.78125 L 148.75,331.4375 L 152.15625,332.46875 L 150.84375,337.5 L 148.46875,341.46875 L 148.75,343.03125 L 145.5625,346.46875 L 144.78125,349.90625 L 142.65625,349.375 L 141.34375,352.28125 L 141.875,354.375 L 140.5625,356.25 L 137.375,356.75 L 134.21875,365.46875 L 134.46875,368.90625 L 130,374.4375 L 137.65625,379.46875 L 141.625,382.625 L 144.5,382.90625 L 142.65625,385.78125 L 139.25,396.09375 L 136.84375,397.6875 L 134.46875,401.09375 L 141.34375,400.3125 L 147.6875,399.53125 L 150.0625,397.15625 L 153.75,395.3125 L 157.71875,396.875 L 158.5,399 L 160.34375,400.84375 L 161.65625,398.1875 L 161.40625,395.8125 L 161.9375,395.3125 L 166.9375,398.71875 L 168.78125,399.25 L 170.375,398.1875 L 171.4375,397.40625 L 174.59375,396.09375 L 175.125,396.625 L 175.65625,398.71875 L 174.34375,401.375 L 175.125,405.59375 L 177.5,408.21875 L 178.28125,411.125 L 181.46875,411.9375 L 187.78125,409.5625 L 188.3125,410.0625 L 188.3125,413.78125 L 192.03125,413.78125 L 192.53125,414.5625 L 190.6875,416.6875 L 192.03125,419.59375 L 197.28125,420.625 L 199.40625,421.96875 L 200.46875,427.5 L 202.84375,430.40625 L 205.75,427.75 L 209.96875,428.03125 L 212.875,426.71875 L 216.8125,427.21875 L 223.40625,428.03125 L 224.46875,429.875 L 223.40625,432.78125 L 227.125,431.96875 L 228.4375,433.5625 L 235.03125,435.9375 L 234.5,440.15625 L 235.28125,442.28125 L 236.875,442.28125 L 237.9375,444.125 L 237.15625,445.1875 L 236.09375,447.5625 L 237.15625,449.40625 L 235.8125,450.46875 L 237.6875,457.59375 L 240.5625,460.75 L 246.375,464.1875 L 247.6875,465.78125 L 249.03125,466.5625 L 252.71875,466.5625 L 263,464.71875 L 266.1875,463.125 L 270.65625,466.03125 L 274.34375,465.5 L 275.6875,466.28125 L 275.40625,470.53125 L 279.09375,470 L 280.4375,467.34375 L 283.59375,467.34375 L 284.65625,466.03125 L 292.84375,465.5 L 293.875,466.5625 L 294.9375,461.8125 L 293.625,461.03125 L 293.875,460.21875 L 296.53125,459.96875 L 297.59375,457.3125 L 302.59375,452.84375 L 297.84375,451.25 L 293.875,451.25 L 290.1875,451.25 L 289.125,449.65625 L 287.03125,448.875 L 288.875,447.5625 L 289.125,445.4375 L 285.6875,440.4375 L 283.3125,433.03125 L 278.84375,433.5625 L 274.09375,431.1875 L 272.5,428.8125 L 266.4375,427.5 L 265.125,421.96875 L 261.15625,420.625 L 258.78125,418.78125 L 255.875,418.53125 L 254.3125,416.40625 L 257.71875,415.34375 L 254.5625,412.1875 L 250.34375,411.9375 L 248.75,410.34375 L 250.0625,408.75 L 251.40625,407.1875 L 254.5625,406.375 L 254.03125,403.21875 L 255.875,403.21875 L 255.09375,400.0625 L 255.34375,397.9375 L 256.9375,397.40625 L 254.8125,395.5625 L 254.8125,394.5 L 258.25,389.21875 L 259.5625,390.28125 L 262.21875,378.9375 L 256.9375,376.03125 L 249.03125,373.125 L 244.8125,372.34375 L 246.375,371.03125 L 245.0625,365.75 L 245.59375,362.3125 L 249.03125,352.8125 L 241.90625,354.90625 L 241.625,353.875 L 243.46875,349.90625 L 245.0625,348.84375 L 244.28125,348.3125 L 245.0625,347 L 246.65625,345.9375 L 247.6875,338.03125 L 245.59375,332.75 L 245.3125,329.59375 L 243.46875,327.46875 L 242.9375,324.8125 L 243.75,322.71875 L 242.9375,320.34375 L 246.375,316.375 L 248.75,315.0625 L 253.78125,314.28125 L 253.5,313.46875 L 248.75,309 L 247.6875,306.875 L 245.3125,306.625 L 239.25,308.46875 L 235.8125,306.875 L 233.71875,303.4375 L 224.46875,300.53125 L 223.9375,303.96875 L 221.03125,305.8125 L 217.34375,306.09375 L 211.8125,304.25 L 208.65625,302.40625 L 205.21875,300.28125 L 204.15625,301.0625 L 202.5625,300.03125 L 201.25,301.59375 L 198.625,302.40625 L 195.96875,306.875 L 194.125,306.09375 L 193.0625,306.34375 L 189.125,310.84375 L 188.3125,315.59375 L 187.25,316.65625 L 183.3125,317.96875 L 170.375,320.59375 L 166.9375,319.28125 L 164.3125,320.875 L 158.5,321.9375 L 156.65625,321.9375 L 157.1875,321.40625 L 154.8125,317.96875 L 152.15625,315.84375 L 150.84375,317.96875 L 143.46875,319.28125 L 141.09375,314.28125 L 137.125,314 L 133.96875,311.90625 L 133.4375,310.5625 L 134.75,303.1875 L 136.0625,302.125 L 125.78125,298.96875 L 121.28125,296.59375 L 114.96875,295.53125 L 112.3125,296.3125 L 110.71875,295.28125 L 109.40625,295.53125 L 109.40625,296.59375 L 108.625,296.84375 L 107.84375,295.78125 L 106.5,296.0625 L 106.5,294.75 L 105.1875,293.9375 L 103.34375,293.6875 z "
         transform="translate(4.4138,2.07)"
         id="path2567"
         sodipodi:nodetypes="cccccccccccccccccccccccccccccccccccccccccccccccccccccccccccccccccccccccccccccccccccccccccccccccccccccccccccccccccccccccccccccccccccccccccccccccccccccccccccccccccccccccccccccccccccccccccccccccccccccccccccccccccccccccccccccccccccccccccccccc" />
      <path
         style="font-size:12px;opacity:1;fill:#8ccc2b;fill-opacity:1;stroke:#4d4d4d;stroke-width:0.25;stroke-linecap:square;stroke-miterlimit:4.0000515;stroke-dasharray:none;stroke-opacity:1"
         d="M 295.09375,11.1875 L 291.875,15.40625 L 287.46875,15.9375 L 285.78125,17.96875 L 283.09375,17.78125 L 283.40625,20.65625 L 284.9375,21.84375 L 283.25,26.0625 L 283.25,30.125 L 281.21875,32 L 279.375,37.21875 L 280.03125,38.0625 L 279.53125,40.28125 L 279.1875,40.625 L 278.84375,40.78125 L 280.53125,41.96875 L 282.0625,41.78125 L 283.40625,43.65625 L 284.9375,44.34375 L 286.46875,50.25 L 290.1875,56 L 291.375,56.84375 L 291.03125,58.375 L 292.03125,57.84375 L 293.0625,60.0625 L 294.25,60.21875 L 296.09375,62.59375 L 295.59375,64.28125 L 296.28125,65.625 L 298.625,66.15625 L 303.53125,69.34375 L 304.71875,70.375 L 304.03125,69.875 L 303.53125,69.34375 L 300.65625,75.4375 L 298.125,74.78125 L 296.9375,75.28125 L 296.4375,77.46875 L 297.125,79.5 L 294.40625,83.21875 L 295.09375,85.25 L 289.5,85.59375 L 288.15625,85.59375 L 286.96875,85.75 L 285.28125,86.78125 L 285.09375,88.96875 L 283.40625,89.8125 L 283.09375,91.15625 L 282.75,92.6875 L 280.375,93.1875 L 279.53125,93.53125 L 279.6875,95.40625 L 280.21875,95.21875 L 280.875,96.75 L 280.21875,98.4375 L 282.75,99.96875 L 285.4375,101.65625 L 287.65625,103.34375 L 295.9375,109.78125 L 297.4375,111.8125 L 300.65625,112.65625 L 301.6875,112.46875 L 304.21875,113.65625 L 303.53125,115.34375 L 306.40625,118.40625 L 306.59375,123.46875 L 305.21875,127.1875 L 306.40625,127.53125 L 309.78125,126.15625 L 309.125,128.1875 L 309.78125,128.375 L 310.8125,125.5 L 311.46875,126.34375 L 311.15625,127.6875 L 308.9375,129.03125 L 311.3125,131.75 L 313.1875,132.59375 L 315.375,134.96875 L 316.5625,134.96875 L 319.59375,137 L 327.53125,140.21875 L 329.25,144.09375 L 327.53125,143.59375 L 327.03125,145.28125 L 329.25,145.09375 L 330.25,146.46875 L 330.40625,147.3125 L 328.71875,148.5 L 330.25,150.1875 L 329.90625,148.15625 L 332.125,147.65625 L 332.96875,146.625 L 333.46875,143.0625 L 336,143.25 L 338.71875,141.71875 L 341.0625,142.40625 L 342.59375,140.21875 L 345.3125,140.21875 L 347.3125,141.71875 L 352.75,139.1875 L 353.40625,136.65625 L 352.90625,135.625 L 348,133.4375 L 347.3125,132.25 L 350.53125,129.875 L 350.375,124.46875 L 349.1875,121.09375 L 346.65625,119.75 L 346.15625,112.3125 L 347.5,109.4375 L 356.78125,106.375 L 359.65625,101.46875 L 358.8125,96.75 L 359.34375,95.90625 L 361.375,95.21875 L 365.9375,95.71875 L 369.96875,93.875 L 374.375,82.375 L 371.6875,82.375 L 371.15625,81.875 L 371.6875,77.3125 L 368.625,75.28125 L 365.59375,73.40625 L 362.03125,72.21875 L 358.3125,68.1875 L 357.125,66.3125 L 359.5,66.3125 L 360,64.46875 L 362.375,64.46875 L 364.90625,62.59375 L 364.90625,59.21875 L 372.84375,60.90625 L 377.75,56.6875 L 376.5625,54.46875 L 376.75,53.125 L 374.5625,51.09375 L 374.375,48.90625 L 372.6875,47.875 L 367.4375,48.90625 L 364.75,50.40625 L 363.90625,52.78125 L 364.5625,49.5625 L 363.375,48.90625 L 361.375,49.5625 L 360.5,48.0625 L 358.5,48.0625 L 356.78125,45.84375 L 354.78125,46.53125 L 352.75,47.21875 L 349.6875,47.375 L 348.5,46.1875 L 346.15625,45.5 L 344.78125,43.5 L 341.90625,40.4375 L 342.4375,40.625 L 342.25,35.875 L 338.71875,34.03125 L 337.6875,34.1875 L 335.84375,36.71875 L 335.5,36.375 L 335.15625,35.875 L 336.6875,39.4375 L 335.84375,37.5625 L 335.15625,35.875 L 334.65625,37.0625 L 331.78125,37.21875 L 329.90625,35.875 L 325.34375,36.21875 L 322.96875,39.78125 L 320.78125,40.78125 L 318.75,39.9375 L 317.40625,38.40625 L 318.0625,37.21875 L 316.90625,37.0625 L 316.5625,34.34375 L 313.1875,32.5 L 311.15625,33.1875 L 307.9375,33.34375 L 307.4375,32.84375 L 308.625,32.65625 L 308.78125,31.65625 L 308.78125,32.65625 L 309.46875,32.65625 L 309.28125,32 L 311.65625,30.96875 L 308.9375,31.46875 L 308.09375,28.28125 L 304.03125,28.28125 L 301,26.25 L 297.4375,18.625 L 297.78125,14.0625 L 295.75,11.375 L 295.09375,11.1875 z M 321.96875,27.59375 L 322.96875,28.9375 L 324.15625,30.3125 L 324.15625,28.59375 L 321.96875,27.59375 z "
         transform="translate(4.4138,2.07)"
         id="path14464"
         sodipodi:nodetypes="cccccccccccccccccccccccccccccccccccccccccccccccccccccccccccccccccccccccccccccccccccccccccccccccccccccccccccccccccccccccccccccccccccccccccccccccccccccccccccccccccccccccccccccccccccccccccccccccccccccc" />
      <path
         style="font-size:12px;opacity:1;fill:#d2eba7;fill-opacity:1;stroke:#4d4d4d;stroke-width:0.25;stroke-linecap:square;stroke-miterlimit:4.00112343;stroke-dasharray:none;stroke-opacity:1"
         d="M 282.90625,16.4375 L 281.5625,16.78125 L 282.0625,18.28125 L 277.84375,21 L 275.46875,24.71875 L 273.09375,26.0625 L 271.90625,25.0625 L 268.375,24.875 L 266.34375,24.03125 L 265.5,25.40625 L 258.21875,25.21875 L 256.875,24.875 L 255.875,26.25 L 248.40625,25.40625 L 247.5625,23.71875 L 245.53125,23.875 L 243.34375,22.34375 L 242.6875,23.375 L 240.46875,23.03125 L 238.09375,23.71875 L 237.9375,24.71875 L 237.25,24.03125 L 235.40625,24.375 L 235.90625,25.40625 L 234.71875,24.71875 L 234.90625,22.34375 L 233.875,21.84375 L 231.1875,21.5 L 231,22.53125 L 227.96875,21.5 L 226.09375,22.34375 L 221.71875,23.875 L 216.8125,23.53125 L 216.46875,26.25 L 214.78125,26.5625 L 213.59375,27.75 L 213.4375,29.625 L 214.09375,29.625 L 213.25,30.96875 L 214.4375,30.46875 L 213.9375,31.46875 L 215.125,32 L 214.09375,33.1875 L 216.3125,33 L 217.15625,36.03125 L 215.4375,36.375 L 215.4375,35.875 L 214.09375,37.0625 L 212.75,36.5625 L 211.5625,35.875 L 211.40625,34.34375 L 208.34375,36.21875 L 206.84375,35.71875 L 205.65625,40.625 L 201.25,43.65625 L 200.5625,44.65625 L 200.90625,45.6875 L 198.875,45.6875 L 198.71875,47.71875 L 194.8125,50.40625 L 192.96875,50.25 L 193.3125,51.09375 L 192.46875,51.9375 L 194.65625,55.3125 L 199.0625,59.875 L 208.6875,63.59375 L 211.21875,65.8125 L 213.4375,69.03125 L 216.96875,71.5625 L 219.34375,73.59375 L 221.375,73.9375 L 225.25,79.15625 L 230.65625,79.65625 L 232.53125,77.125 L 232.03125,74.25 L 232.6875,72.75 L 234.375,74.09375 L 234.21875,76.96875 L 235.0625,76.78125 L 235.0625,77.96875 L 236.9375,79.15625 L 238.09375,80 L 238.9375,81.375 L 239.125,81.6875 L 240.125,83.0625 L 240.46875,82.875 L 243.1875,83.21875 L 244.6875,85.59375 L 244.53125,86.4375 L 245.21875,87.625 L 246.0625,87.78125 L 245.71875,90.5 L 245.03125,91.5 L 247.5625,93.71875 L 247.75,93.03125 L 248.9375,93.03125 L 249.09375,92.1875 L 247.25,92 L 247.25,91 L 248.59375,88.625 L 249.28125,88.8125 L 254.34375,89.3125 L 256.53125,90.84375 L 265.3125,97.4375 L 269.90625,99.125 L 272.9375,102.65625 L 275.8125,104.53125 L 277.34375,103.6875 L 278.6875,104.875 L 279.03125,103.5 L 279.6875,103.84375 L 280.71875,103 L 284.59375,106.71875 L 287.65625,103.34375 L 285.4375,101.65625 L 280.21875,98.4375 L 280.875,96.75 L 280.21875,95.21875 L 279.6875,95.40625 L 279.53125,93.53125 L 280.375,93.1875 L 282.75,92.6875 L 283.40625,89.8125 L 285.09375,88.96875 L 285.28125,86.78125 L 286.96875,85.75 L 289.5,85.59375 L 295.09375,85.25 L 294.40625,83.21875 L 297.125,79.5 L 296.4375,77.46875 L 296.9375,75.28125 L 298.125,74.78125 L 300.65625,75.4375 L 303.53125,69.34375 L 298.625,66.15625 L 296.28125,65.625 L 295.59375,64.28125 L 296.09375,62.59375 L 294.25,60.21875 L 293.0625,60.0625 L 292.03125,57.84375 L 291.03125,58.375 L 291.375,56.84375 L 290.6875,56.34375 L 290.1875,56 L 288.3125,53.125 L 286.46875,50.25 L 284.9375,44.34375 L 283.40625,43.65625 L 282.0625,41.78125 L 280.53125,41.96875 L 278.84375,40.78125 L 279.53125,40.28125 L 280.03125,38.0625 L 279.375,37.21875 L 281.21875,32 L 283.25,30.125 L 283.25,26.0625 L 284.9375,21.84375 L 283.40625,20.65625 L 283.09375,17.78125 L 282.90625,16.4375 z "
         transform="translate(4.4138,2.07)"
         id="path14468"
         sodipodi:nodetypes="ccccccccccccccccccccccccccccccccccccccccccccccccccccccccccccccccccccccccccccccccccccccccccccccccccccccccccccccccccccccccccccccccccccccccccccccccccccccccccccccccccc" />
      <path
         style="font-size:12px;opacity:1;fill:#b8c930;fill-opacity:1;stroke:#4d4d4d;stroke-width:0.25;stroke-linecap:square;stroke-miterlimit:4;stroke-dasharray:none;stroke-opacity:1"
         d="M 481.88255,192.72625 L 477.7263,192.91375 L 477.88255,195.82 L 478.25755,196.91375 L 478.07005,197.6325 L 478.25755,198.16375 L 477.5388,200.16375 L 476.63255,201.22625 L 475.3513,201.78875 L 474.1013,201.78875 L 472.63255,200.16375 L 473.19505,199.445 L 473.5388,198.16375 L 471.38255,195.2575 L 469.38255,198.8825 L 468.32005,199.07 L 467.2263,199.2575 L 467.2263,202.1325 L 468.6638,202.5075 L 469.0388,203.60125 L 465.4138,206.32 L 465.6013,208.47625 L 466.8513,209.91375 L 465.94505,210.47625 L 464.13255,217.16375 L 462.50755,222.41375 L 462.69505,224.57 L 454.57005,227.66375 L 452.75755,230.195 L 455.63255,236.8825 L 460.1638,240.32 L 457.63255,243.3825 L 456.9138,245.7575 L 460.5388,248.28875 L 461.6013,250.6325 L 459.63255,253.5075 L 460.69505,254.78875 L 460.69505,258.22625 L 462.1638,260.945 L 463.7888,262.195 L 462.50755,266.35125 L 456.9138,270.53875 L 455.2888,273.41375 L 457.63255,274.5075 L 457.82005,277.7575 L 464.13255,280.66375 L 465.0388,280.47625 L 468.4763,284.28875 L 469.57005,287.53875 L 473.19505,291.5075 L 475.7263,296.7575 L 484.2263,302.195 L 489.4763,302.0075 L 493.63255,303.82 L 494.1638,304.72625 L 496.1638,304.72625 L 502.32005,300.0075 L 503.2263,298.3825 L 502.50755,296.22625 L 505.0388,294.945 L 509.9138,296.3825 L 515.69505,295.47625 L 521.4763,293.32 L 522.38255,294.22625 L 525.1013,294.41375 L 526.9138,293.32 L 529.82005,294.60125 L 534.88255,300.72625 L 534.50755,302.35125 L 537.4138,302.195 L 539.94505,301.82 L 544.2888,298.195 L 546.63255,298.3825 L 550.25755,298.3825 L 552.2263,299.28875 L 552.7888,298.7575 L 554.0388,298.91375 L 555.6638,299.66375 L 558.19505,298.3825 L 560.57005,298.03875 L 564.7263,294.41375 L 566.3513,294.03875 L 565.7888,291.8825 L 568.3513,288.07 L 569.6013,281.0075 L 561.63255,281.91375 L 560.19505,279.7575 L 559.82005,275.41375 L 557.2888,274.32 L 561.82005,271.78875 L 561.4763,270.695 L 561.1013,259.5075 L 559.82005,248.6325 L 561.63255,247.72625 L 558.38255,243.03875 L 559.1013,242.85125 L 559.4763,239.41375 L 561.4763,236.35125 L 559.1013,230.53875 L 559.6638,229.10125 L 559.1013,228.195 L 558.57005,227.28875 L 551.88255,229.47625 L 550.4138,230.53875 L 548.9763,226.7575 L 549.1638,225.47625 L 549.3513,224.22625 L 548.07005,223.32 L 545.5388,225.1325 L 543.57005,222.7575 L 541.00755,222.7575 L 539.2263,219.16375 L 538.8513,215.16375 L 536.50755,213.195 L 533.9763,211.195 L 529.82005,210.47625 L 526.19505,208.66375 L 517.50755,202.695 L 516.07005,202.32 L 514.6013,201.78875 L 510.25755,203.78875 L 508.4763,205.7575 L 503.2263,206.85125 L 498.69505,203.03875 L 496.5388,203.78875 L 494.5388,206.47625 L 493.63255,206.47625 L 492.7263,206.47625 L 491.44505,206.1325 L 489.6638,203.945 L 489.6638,201.60125 L 488.38255,199.445 L 482.94505,194.53875 L 482.6013,192.91375 L 481.88255,192.72625 z "
         id="path4238" />
      <path
         style="font-size:12px;opacity:1;fill:#bde36b;fill-opacity:1;stroke:#4d4d4d;stroke-width:0.25;stroke-linecap:square;stroke-miterlimit:4;stroke-dasharray:none;stroke-opacity:1"
         d="M 584.25755,127.445 L 582.44505,128.8825 L 581.00755,128.8825 L 579.7263,131.03875 L 573.4138,129.2575 L 570.88255,130.32 L 566.1638,136.28875 L 562.5388,136.66375 L 562.5388,137.3825 L 559.82005,137.7575 L 554.6013,140.28875 L 552.07005,143.53875 L 550.9763,146.78875 L 547.7263,147.695 L 546.25755,149.695 L 546.63255,150.41375 L 545.5388,153.1325 L 546.1013,155.10125 L 546.44505,156.91375 L 545.19505,160.72625 L 546.1013,161.82 L 545.7263,163.97625 L 544.44505,165.2575 L 546.82005,168.5075 L 544.82005,170.1325 L 545.9138,170.85125 L 546.9763,171.57 L 546.1013,176.10125 L 543.38255,180.78875 L 540.13255,181.16375 L 539.0388,182.97625 L 536.8513,182.78875 L 534.32005,183.8825 L 530.5388,181.695 L 529.44505,182.97625 L 528.9138,182.97625 L 528.3513,182.97625 L 530.5388,185.1325 L 529.82005,187.32 L 530.3513,189.28875 L 532.88255,191.82 L 535.6013,197.82 L 535.7888,198.8825 L 534.32005,199.97625 L 534.1638,202.32 L 534.69505,203.03875 L 533.7888,204.5075 L 534.69505,205.41375 L 533.4138,204.66375 L 532.69505,205.57 L 533.07005,207.3825 L 533.7888,209.3825 L 533.9763,211.195 L 538.8513,215.16375 L 539.2263,219.16375 L 541.00755,222.7575 L 543.57005,222.7575 L 545.5388,225.1325 L 548.07005,223.32 L 549.3513,224.22625 L 548.9763,226.7575 L 550.4138,230.53875 L 551.88255,229.47625 L 558.57005,227.28875 L 559.6638,229.10125 L 559.1013,230.53875 L 561.4763,236.35125 L 559.4763,239.41375 L 559.1013,242.85125 L 558.38255,243.03875 L 561.63255,247.72625 L 559.82005,248.6325 L 561.1013,259.5075 L 565.63255,258.41375 L 572.13255,252.78875 L 585.50755,251.16375 L 591.4763,248.6325 L 595.4763,247.53875 L 596.00755,244.10125 L 599.82005,239.03875 L 600.88255,235.2575 L 598.9138,228.57 L 601.9763,228.195 L 602.3513,225.28875 L 602.69505,224.7575 L 603.07005,224.22625 L 604.1638,224.03875 L 612.2888,220.41375 L 612.82005,220.945 L 614.82005,219.8825 L 615.7263,219.5075 L 616.25755,219.32 L 616.82005,219.16375 L 619.1638,217.5075 L 620.07005,216.445 L 618.9763,213.53875 L 618.63255,213.72625 L 618.25755,213.72625 L 618.9763,213.53875 L 622.07005,211.53875 L 629.6638,210.10125 L 629.1013,208.85125 L 630.9138,206.85125 L 632.9138,206.1325 L 633.44505,204.85125 L 632.9138,203.945 L 635.25755,202.8825 L 636.1638,200.8825 L 639.25755,199.97625 L 640.50755,197.6325 L 640.13255,196.16375 L 642.50755,192.57 L 647.9138,188.57 L 647.75755,185.695 L 647.00755,183.8825 L 645.57005,182.78875 L 644.13255,182.78875 L 640.32005,180.445 L 640.32005,177.0075 L 640.69505,176.10125 L 641.2263,175.195 L 642.13255,172.28875 L 641.7888,169.7575 L 639.9763,167.945 L 636.5388,167.03875 L 632.9138,163.60125 L 628.94505,162.695 L 624.4138,158.72625 L 622.7888,157.10125 L 621.32005,155.47625 L 616.63255,155.82 L 614.4763,157.28875 L 614.1013,158.3825 L 611.19505,160.35125 L 608.6638,160.35125 L 606.50755,160.91375 L 605.6013,160.16375 L 601.7888,153.85125 L 599.44505,155.66375 L 595.4763,152.41375 L 593.6638,153.1325 L 591.32005,151.66375 L 591.8513,150.41375 L 592.57005,150.60125 L 592.75755,149.1325 L 590.75755,149.5075 L 591.32005,148.78875 L 589.8513,148.07 L 586.25755,141.53875 L 587.88255,140.6325 L 588.2263,138.47625 L 591.32005,137.91375 L 588.94505,136.85125 L 588.4138,135.22625 L 586.7888,136.85125 L 584.44505,136.1325 L 583.7263,132.85125 L 584.25755,130.695 L 585.3513,129.60125 L 586.25755,128.5075 L 584.25755,127.445 z "
         id="path4247" />
      <path
         style="font-size:12px;opacity:1;fill:#a3b560;fill-opacity:1;stroke:#4d4d4d;stroke-width:0.25;stroke-linecap:square;stroke-miterlimit:4;stroke-dasharray:none;stroke-opacity:1"
         d="M 524.38255,91.2575 L 523.2888,91.78875 L 522.94505,94.695 L 521.8513,95.60125 L 518.4138,92.8825 L 513.3513,91.60125 L 508.82005,93.2575 L 508.2888,95.60125 L 507.19505,95.945 L 505.94505,96.5075 L 505.75755,97.03875 L 504.4763,97.03875 L 504.6638,95.78875 L 499.9763,96.1325 L 500.32005,97.03875 L 499.2263,98.32 L 496.69505,97.57 L 497.07005,98.1325 L 495.63255,98.85125 L 492.7263,99.945 L 489.82005,100.85125 L 496.69505,103.57 L 498.32005,104.28875 L 497.4138,103.91375 L 496.69505,103.57 L 497.6013,106.2575 L 494.1638,108.07 L 493.25755,110.78875 L 492.3513,110.97625 L 485.4763,121.47625 L 486.0388,129.78875 L 491.44505,129.60125 L 493.25755,130.32 L 493.9763,130.8825 L 493.63255,133.41375 L 494.5388,133.945 L 488.9138,141.0075 L 486.0388,144.97625 L 484.94505,145.8825 L 483.8513,146.60125 L 476.07005,142.2575 L 470.8513,137.3825 L 469.57005,137.91375 L 468.13255,140.6325 L 468.13255,142.82 L 466.50755,145.16375 L 464.88255,144.78875 L 462.3513,146.97625 L 459.82005,147.8825 L 460.88255,149.695 L 457.82005,155.28875 L 459.44505,160.0075 L 457.1013,162.695 L 457.44505,165.60125 L 456.7263,167.41375 L 457.82005,169.22625 L 457.44505,171.22625 L 459.25755,173.7575 L 457.82005,178.2575 L 458.9138,181.16375 L 457.25755,183.16375 L 457.63255,186.7575 L 460.5388,188.945 L 460.1638,192.0075 L 463.2263,192.0075 L 463.9763,195.445 L 467.2263,199.2575 L 469.38255,198.8825 L 471.38255,195.2575 L 473.5388,198.16375 L 473.19505,199.445 L 472.63255,200.16375 L 474.1013,201.78875 L 475.3513,201.78875 L 476.63255,201.22625 L 477.5388,200.16375 L 478.25755,198.16375 L 478.07005,197.6325 L 478.25755,196.91375 L 477.88255,195.82 L 477.7263,192.91375 L 481.88255,192.72625 L 482.6013,192.91375 L 482.94505,194.53875 L 488.38255,199.445 L 489.6638,201.60125 L 489.6638,203.945 L 491.44505,206.1325 L 492.7263,206.47625 L 494.5388,206.47625 L 496.5388,203.78875 L 498.69505,203.03875 L 503.2263,206.85125 L 508.4763,205.7575 L 510.25755,203.78875 L 514.6013,201.78875 L 517.50755,202.695 L 526.19505,208.66375 L 529.82005,210.47625 L 533.9763,211.195 L 533.7888,209.3825 L 533.07005,207.3825 L 532.69505,205.57 L 533.4138,204.66375 L 533.7888,204.5075 L 534.69505,203.03875 L 534.1638,202.32 L 534.32005,199.97625 L 535.7888,198.8825 L 535.6013,197.82 L 532.88255,191.82 L 530.3513,189.28875 L 529.82005,187.32 L 530.5388,185.1325 L 529.44505,184.07 L 528.3513,182.97625 L 529.44505,182.97625 L 530.5388,181.695 L 534.32005,183.8825 L 536.8513,182.78875 L 539.0388,182.97625 L 540.13255,181.16375 L 543.38255,180.78875 L 546.1013,176.10125 L 546.9763,171.57 L 544.82005,170.1325 L 546.82005,168.5075 L 544.44505,165.2575 L 545.7263,163.97625 L 546.1013,161.82 L 545.19505,160.72625 L 546.44505,156.91375 L 545.5388,153.1325 L 546.63255,150.41375 L 546.25755,149.695 L 547.7263,147.695 L 550.9763,146.78875 L 552.07005,143.53875 L 554.6013,140.28875 L 559.82005,137.7575 L 562.5388,137.3825 L 562.5388,136.66375 L 566.1638,136.28875 L 570.88255,130.32 L 573.4138,129.2575 L 571.94505,125.82 L 572.32005,124.91375 L 569.2263,120.72625 L 568.50755,114.03875 L 568.88255,113.1325 L 567.6013,110.41375 L 568.50755,107.72625 L 567.7888,105.53875 L 570.13255,104.10125 L 569.7888,102.47625 L 571.0388,101.3825 L 572.13255,100.1325 L 571.0388,96.695 L 572.6638,92.695 L 560.57005,97.57 L 559.4763,99.22625 L 557.6638,99.7575 L 557.13255,101.0075 L 556.0388,100.85125 L 554.6013,103.57 L 553.13255,103.0075 L 553.50755,104.28875 L 552.7888,104.10125 L 551.88255,102.10125 L 550.25755,101.7575 L 548.7888,101.195 L 547.7263,101.7575 L 545.5388,100.66375 L 544.63255,101.0075 L 544.1013,102.82 L 533.6013,104.28875 L 533.4138,102.28875 L 531.25755,100.66375 L 529.07005,101.91375 L 528.00755,98.47625 L 523.4763,96.85125 L 523.8513,94.5075 L 524.9138,92.8825 L 524.38255,91.2575 z "
         id="path4258" />
    </g>
    <text
       xml:space="preserve"
       style="font-size:12px;font-style:italic;font-weight:normal;text-align:center;text-anchor:middle;fill:black;fill-opacity:1;stroke:none;stroke-width:1px;stroke-linecap:butt;stroke-linejoin:miter;stroke-opacity:1;font-family:Arial"
       x="-95.305817"
       y="586.32703"
       id="text4321"><tspan
         sodipodi:role="line"
         id="tspan4323"
         x="-95.305817"
         y="586.32703">Encartaciones</tspan></text>
    <text
       xml:space="preserve"
       style="font-size:12px;font-style:italic;font-weight:normal;text-align:center;text-anchor:middle;fill:black;fill-opacity:1;stroke:none;stroke-width:1px;stroke-linecap:butt;stroke-linejoin:miter;stroke-opacity:1;font-family:Arial"
       x="18.152233"
       y="555.99664"
       id="text4325"><tspan
         sodipodi:role="line"
         id="tspan4327"
         x="18.152233"
         y="555.99664">Gran Bilbao</tspan></text>
    <text
       xml:space="preserve"
       style="font-size:12px;font-style:italic;font-weight:normal;text-align:center;text-anchor:middle;fill:black;fill-opacity:1;stroke:none;stroke-width:1px;stroke-linecap:butt;stroke-linejoin:miter;stroke-opacity:1;font-family:Arial"
       x="48.482594"
       y="506.5694"
       id="text4329"><tspan
         sodipodi:role="line"
         id="tspan4331"
         x="48.482594"
         y="506.5694">Plentzia-Mungia</tspan></text>
    <text
       xml:space="preserve"
       style="font-size:12px;font-style:italic;font-weight:normal;text-align:center;text-anchor:middle;fill:black;fill-opacity:1;stroke:none;stroke-width:1px;stroke-linecap:butt;stroke-linejoin:miter;stroke-opacity:1;font-family:Arial"
       x="125.25345"
       y="530.40637"
       id="text4333"><tspan
         sodipodi:role="line"
         id="tspan4335"
         x="125.25345"
         y="530.40637">Gernika-Bermeo</tspan></text>
    <text
       xml:space="preserve"
       style="font-size:12px;font-style:italic;font-weight:normal;text-align:center;text-anchor:middle;fill:black;fill-opacity:1;stroke:none;stroke-width:1px;stroke-linecap:butt;stroke-linejoin:miter;stroke-opacity:1;font-family:Arial"
       x="175.24214"
       y="229.1628"
       id="text4337"
       transform="translate(-199.7771,444.7853)"><tspan
         sodipodi:role="line"
         id="tspan4339"
         x="175.24214"
         y="229.1628">Cantabrica Alavesa</tspan></text>
    <text
       xml:space="preserve"
       style="font-size:12px;font-style:italic;font-weight:normal;text-align:center;text-anchor:middle;fill:black;fill-opacity:1;stroke:none;stroke-width:1px;stroke-linecap:butt;stroke-linejoin:miter;stroke-opacity:1;font-family:Arial"
       x="84.42971"
       y="723.37543"
       id="text4341"><tspan
         sodipodi:role="line"
         id="tspan4343"
         x="84.42971"
         y="723.37543">Estrib. de Gorbea</tspan></text>
    <text
       xml:space="preserve"
       style="font-size:12px;font-style:italic;font-weight:normal;text-align:center;text-anchor:middle;fill:black;fill-opacity:1;stroke:none;stroke-width:1px;stroke-linecap:butt;stroke-linejoin:miter;stroke-opacity:1;font-family:Arial"
       x="72.072891"
       y="657.0979"
       id="text4345"><tspan
         sodipodi:role="line"
         id="tspan4347"
         x="72.072891"
         y="657.0979">Arratia-Nervion</tspan></text>
    <text
       xml:space="preserve"
       style="font-size:12px;font-style:italic;font-weight:normal;text-align:center;text-anchor:middle;fill:black;fill-opacity:1;stroke:none;stroke-width:1px;stroke-linecap:butt;stroke-linejoin:miter;stroke-opacity:1;font-family:Arial"
       x="149.58383"
       y="618.90411"
       id="text4349"><tspan
         sodipodi:role="line"
         id="tspan4351"
         x="149.58383"
         y="618.90411">Duranguesado</tspan></text>
    <text
       xml:space="preserve"
       style="font-size:12px;font-style:italic;font-weight:normal;text-align:center;text-anchor:middle;fill:black;fill-opacity:1;stroke:none;stroke-width:1px;stroke-linecap:butt;stroke-linejoin:miter;stroke-opacity:1;font-family:Arial"
       x="218.66968"
       y="681.24988"
       id="text4353"><tspan
         sodipodi:role="line"
         id="tspan4355"
         x="218.66968"
         y="681.24988">Alto Deba</tspan></text>
    <text
       xml:space="preserve"
       style="font-size:12px;font-style:italic;font-weight:normal;text-align:center;text-anchor:middle;fill:black;fill-opacity:1;stroke:none;stroke-width:1px;stroke-linecap:butt;stroke-linejoin:miter;stroke-opacity:1;font-family:Arial"
       x="241.69829"
       y="582.95697"
       id="text4357"><tspan
         sodipodi:role="line"
         id="tspan4359"
         x="241.69829"
         y="582.95697">Bajo Deba</tspan></text>
    <text
       xml:space="preserve"
       style="font-size:12px;font-style:italic;font-weight:normal;text-align:center;text-anchor:middle;fill:black;fill-opacity:1;stroke:none;stroke-width:1px;stroke-linecap:butt;stroke-linejoin:miter;stroke-opacity:1;font-family:Arial"
       x="309.09912"
       y="595.31378"
       id="text4361"><tspan
         sodipodi:role="line"
         id="tspan4363"
         x="309.09912"
         y="595.31378">Urola Costa</tspan></text>
    <text
       xml:space="preserve"
       style="font-size:12px;font-style:italic;font-weight:normal;text-align:center;text-anchor:middle;fill:black;fill-opacity:1;stroke:none;stroke-width:1px;stroke-linecap:butt;stroke-linejoin:miter;stroke-opacity:1;font-family:Arial"
       x="383.24002"
       y="638.00098"
       id="text4365"><tspan
         sodipodi:role="line"
         id="tspan4367"
         x="383.24002"
         y="638.00098">Tolosa</tspan></text>
    <text
       xml:space="preserve"
       style="font-size:12px;font-style:italic;font-weight:normal;text-align:center;text-anchor:middle;fill:black;fill-opacity:1;stroke:none;stroke-width:1px;stroke-linecap:butt;stroke-linejoin:miter;stroke-opacity:1;font-family:Arial"
       x="430.42062"
       y="560.49005"
       id="text4369"><tspan
         sodipodi:role="line"
         id="tspan4371"
         x="430.42062"
         y="560.49005">Donostialdea</tspan></text>
    <text
       xml:space="preserve"
       style="font-size:12px;font-style:italic;font-weight:normal;text-align:center;text-anchor:middle;fill:black;fill-opacity:1;stroke:none;stroke-width:1px;stroke-linecap:butt;stroke-linejoin:miter;stroke-opacity:1;font-family:Arial"
       x="484.34125"
       y="522.29626"
       id="text4373"><tspan
         sodipodi:role="line"
         id="tspan4375"
         x="484.34125"
         y="522.29626">Bajo Bidasoa</tspan></text>
    <text
       xml:space="preserve"
       style="font-size:12px;font-style:italic;font-weight:normal;text-align:center;text-anchor:middle;fill:black;fill-opacity:1;stroke:none;stroke-width:1px;stroke-linecap:butt;stroke-linejoin:miter;stroke-opacity:1;font-family:Arial"
       x="170.36574"
       y="790.77618"
       id="text4377"><tspan
         sodipodi:role="line"
         id="tspan4379"
         x="170.36574"
         y="790.77618">Llanada Alavesa</tspan></text>
    <text
       xml:space="preserve"
       style="font-size:12px;font-style:italic;font-weight:normal;text-align:center;text-anchor:middle;fill:black;fill-opacity:1;stroke:none;stroke-width:1px;stroke-linecap:butt;stroke-linejoin:miter;stroke-opacity:1;font-family:Arial"
       x="221.47803"
       y="880.64398"
       id="text4381"><tspan
         sodipodi:role="line"
         id="tspan4383"
         x="221.47803"
         y="880.64398">Montaña Alavesa</tspan></text>
    <text
       xml:space="preserve"
       style="font-size:12px;font-style:italic;font-weight:normal;text-align:center;text-anchor:middle;fill:black;fill-opacity:1;stroke:none;stroke-width:1px;stroke-linecap:butt;stroke-linejoin:miter;stroke-opacity:1;font-family:Arial"
       x="179.9142"
       y="966.58002"
       id="text4385"><tspan
         sodipodi:role="line"
         id="tspan4387"
         x="179.9142"
         y="966.58002">Rioja Alavesa</tspan></text>
    <text
       xml:space="preserve"
       style="font-size:12px;font-style:italic;font-weight:normal;text-align:center;text-anchor:middle;fill:black;fill-opacity:1;stroke:none;stroke-width:1px;stroke-linecap:butt;stroke-linejoin:miter;stroke-opacity:1;font-family:Arial"
       x="-4.3147073"
       y="825.03827"
       id="text4389"><tspan
         sodipodi:role="line"
         id="tspan4391"
         x="-4.3147073"
         y="825.03827">Valles Alaveses</tspan></text>
    <text
       xml:space="preserve"
       style="font-size:12px;font-style:italic;font-weight:normal;text-align:center;text-anchor:middle;fill:black;fill-opacity:1;stroke:none;stroke-width:1px;stroke-linecap:butt;stroke-linejoin:miter;stroke-opacity:1;font-family:Arial"
       x="304.60571"
       y="697.53839"
       id="text4393"><tspan
         sodipodi:role="line"
         id="tspan4395"
         x="304.60571"
         y="697.53839">Goierri</tspan></text>
    <text
       xml:space="preserve"
       style="font-size:12px;font-style:italic;font-weight:normal;text-align:center;text-anchor:middle;fill:black;fill-opacity:1;stroke:none;stroke-width:1px;stroke-linecap:butt;stroke-linejoin:miter;stroke-opacity:1;font-family:Arial"
       x="187.77763"
       y="553.74994"
       id="text4397"><tspan
         sodipodi:role="line"
         id="tspan4399"
         x="187.77763"
         y="553.74994">Markina-Ondarroa</tspan></text>
  </g>
</svg>
